<mxfile host="app.diagrams.net" modified="2022-07-18T10:31:03.259Z" agent="5.0 (Windows NT 10.0; Win64; x64) AppleWebKit/537.36 (KHTML, like Gecko) Chrome/103.0.0.0 Safari/537.36" etag="VHASzVliinNK9nHhjt1q" version="20.1.1" type="github" pages="2">
  <diagram id="8fyNTl2rTRf6AflnJb4E" name="context">
    <mxGraphModel dx="1422" dy="762" grid="1" gridSize="10" guides="1" tooltips="1" connect="1" arrows="1" fold="1" page="1" pageScale="1" pageWidth="1169" pageHeight="1654" math="0" shadow="0">
      <root>
        <mxCell id="0" />
        <mxCell id="1" parent="0" />
        <mxCell id="ACEPfVbA1j1k4u8m79z--65" value="" style="verticalLabelPosition=bottom;verticalAlign=top;html=1;shape=mxgraph.basic.rect;fillColor2=none;strokeWidth=1;size=20;indent=5;fillColor=#f5f5f5;strokeColor=#666666;fontColor=#333333;" parent="1" vertex="1">
          <mxGeometry x="260" y="925" width="290" height="85" as="geometry" />
        </mxCell>
        <mxCell id="ACEPfVbA1j1k4u8m79z--1" value="var myname = &#39;heora&#39;" style="rounded=0;whiteSpace=wrap;html=1;" parent="1" vertex="1">
          <mxGeometry x="80" y="120" width="140" height="40" as="geometry" />
        </mxCell>
        <mxCell id="ACEPfVbA1j1k4u8m79z--3" value="var myname = undefined" style="rounded=0;whiteSpace=wrap;html=1;fillColor=#dae8fc;strokeColor=#6c8ebf;" parent="1" vertex="1">
          <mxGeometry x="300" y="80" width="160" height="40" as="geometry" />
        </mxCell>
        <mxCell id="ACEPfVbA1j1k4u8m79z--4" value="myname = &#39;heora&#39;" style="rounded=0;whiteSpace=wrap;html=1;fillColor=#ffe6cc;strokeColor=#d79b00;" parent="1" vertex="1">
          <mxGeometry x="300" y="160" width="160" height="40" as="geometry" />
        </mxCell>
        <mxCell id="ACEPfVbA1j1k4u8m79z--7" value="" style="endArrow=classic;html=1;rounded=0;exitX=1;exitY=0.25;exitDx=0;exitDy=0;entryX=0;entryY=0.5;entryDx=0;entryDy=0;" parent="1" source="ACEPfVbA1j1k4u8m79z--1" target="ACEPfVbA1j1k4u8m79z--3" edge="1">
          <mxGeometry width="50" height="50" relative="1" as="geometry">
            <mxPoint x="380" y="180" as="sourcePoint" />
            <mxPoint x="430" y="130" as="targetPoint" />
          </mxGeometry>
        </mxCell>
        <mxCell id="ACEPfVbA1j1k4u8m79z--8" value="" style="endArrow=classic;html=1;rounded=0;exitX=1;exitY=0.75;exitDx=0;exitDy=0;entryX=0;entryY=0.5;entryDx=0;entryDy=0;" parent="1" source="ACEPfVbA1j1k4u8m79z--1" target="ACEPfVbA1j1k4u8m79z--4" edge="1">
          <mxGeometry width="50" height="50" relative="1" as="geometry">
            <mxPoint x="380" y="180" as="sourcePoint" />
            <mxPoint x="430" y="130" as="targetPoint" />
          </mxGeometry>
        </mxCell>
        <mxCell id="ACEPfVbA1j1k4u8m79z--18" value="&lt;span style=&quot;&quot;&gt;&amp;nbsp;function foo() {&lt;/span&gt;&lt;br style=&quot;&quot;&gt;&lt;span style=&quot;&quot;&gt;&amp;nbsp; &amp;nbsp;console.log(&#39;foo&#39;)&lt;/span&gt;&lt;br style=&quot;&quot;&gt;&lt;span style=&quot;&quot;&gt;&amp;nbsp;}&lt;/span&gt;" style="text;html=1;strokeColor=default;fillColor=none;align=left;verticalAlign=top;whiteSpace=wrap;rounded=0;" parent="1" vertex="1">
          <mxGeometry x="80" y="360" width="140" height="60" as="geometry" />
        </mxCell>
        <mxCell id="ACEPfVbA1j1k4u8m79z--20" value="&lt;span style=&quot;&quot;&gt;&amp;nbsp;var bar = function() {&lt;/span&gt;&lt;br style=&quot;&quot;&gt;&lt;span style=&quot;&quot;&gt;&amp;nbsp; &amp;nbsp;console.log(&#39;bar&#39;)&lt;/span&gt;&lt;br style=&quot;&quot;&gt;&lt;span style=&quot;&quot;&gt;&amp;nbsp;}&lt;/span&gt;" style="text;html=1;strokeColor=default;fillColor=none;align=left;verticalAlign=top;whiteSpace=wrap;rounded=0;" parent="1" vertex="1">
          <mxGeometry x="80" y="465" width="140" height="60" as="geometry" />
        </mxCell>
        <mxCell id="ACEPfVbA1j1k4u8m79z--21" value="&lt;span style=&quot;&quot;&gt;&amp;nbsp; function foo = function () {&lt;/span&gt;&lt;br style=&quot;&quot;&gt;&lt;span style=&quot;&quot;&gt;&amp;nbsp; &amp;nbsp; console.log(&#39;foo&#39;)&lt;/span&gt;&lt;br style=&quot;&quot;&gt;&lt;span style=&quot;&quot;&gt;&amp;nbsp; }&lt;/span&gt;" style="text;html=1;strokeColor=#6c8ebf;fillColor=#dae8fc;align=left;verticalAlign=top;whiteSpace=wrap;rounded=0;" parent="1" vertex="1">
          <mxGeometry x="320" y="320" width="160" height="60" as="geometry" />
        </mxCell>
        <mxCell id="ACEPfVbA1j1k4u8m79z--23" value="&amp;nbsp; var bar = undefined" style="text;html=1;strokeColor=#6c8ebf;fillColor=#dae8fc;align=left;verticalAlign=top;whiteSpace=wrap;rounded=0;" parent="1" vertex="1">
          <mxGeometry x="320" y="460" width="120" height="30" as="geometry" />
        </mxCell>
        <mxCell id="ACEPfVbA1j1k4u8m79z--24" value="&amp;nbsp; bar = function() { console.log(&#39;bar&#39; }" style="text;html=1;strokeColor=#d79b00;fillColor=#ffe6cc;align=left;verticalAlign=top;whiteSpace=wrap;rounded=0;" parent="1" vertex="1">
          <mxGeometry x="320" y="525" width="200" height="30" as="geometry" />
        </mxCell>
        <mxCell id="ACEPfVbA1j1k4u8m79z--25" value="" style="endArrow=classic;html=1;rounded=0;exitX=1;exitY=0.5;exitDx=0;exitDy=0;entryX=0;entryY=0.5;entryDx=0;entryDy=0;" parent="1" source="ACEPfVbA1j1k4u8m79z--18" target="ACEPfVbA1j1k4u8m79z--21" edge="1">
          <mxGeometry width="50" height="50" relative="1" as="geometry">
            <mxPoint x="380" y="460" as="sourcePoint" />
            <mxPoint x="430" y="410" as="targetPoint" />
          </mxGeometry>
        </mxCell>
        <mxCell id="ACEPfVbA1j1k4u8m79z--26" value="" style="endArrow=classic;html=1;rounded=0;exitX=1.006;exitY=0.361;exitDx=0;exitDy=0;exitPerimeter=0;entryX=0;entryY=0.5;entryDx=0;entryDy=0;" parent="1" source="ACEPfVbA1j1k4u8m79z--20" target="ACEPfVbA1j1k4u8m79z--23" edge="1">
          <mxGeometry width="50" height="50" relative="1" as="geometry">
            <mxPoint x="380" y="460" as="sourcePoint" />
            <mxPoint x="430" y="410" as="targetPoint" />
          </mxGeometry>
        </mxCell>
        <mxCell id="ACEPfVbA1j1k4u8m79z--27" value="" style="endArrow=classic;html=1;rounded=0;exitX=1;exitY=0.75;exitDx=0;exitDy=0;entryX=0;entryY=0.5;entryDx=0;entryDy=0;" parent="1" source="ACEPfVbA1j1k4u8m79z--20" target="ACEPfVbA1j1k4u8m79z--24" edge="1">
          <mxGeometry width="50" height="50" relative="1" as="geometry">
            <mxPoint x="380" y="460" as="sourcePoint" />
            <mxPoint x="430" y="410" as="targetPoint" />
          </mxGeometry>
        </mxCell>
        <mxCell id="ACEPfVbA1j1k4u8m79z--28" value="声明" style="text;html=1;strokeColor=none;fillColor=none;align=center;verticalAlign=middle;whiteSpace=wrap;rounded=0;dashed=1;" parent="1" vertex="1">
          <mxGeometry x="350" y="40" width="60" height="30" as="geometry" />
        </mxCell>
        <mxCell id="ACEPfVbA1j1k4u8m79z--29" value="赋值" style="text;html=1;strokeColor=none;fillColor=none;align=center;verticalAlign=middle;whiteSpace=wrap;rounded=0;dashed=1;" parent="1" vertex="1">
          <mxGeometry x="350" y="210" width="60" height="30" as="geometry" />
        </mxCell>
        <mxCell id="ACEPfVbA1j1k4u8m79z--30" value="声明" style="text;html=1;strokeColor=none;fillColor=none;align=center;verticalAlign=middle;whiteSpace=wrap;rounded=0;dashed=1;" parent="1" vertex="1">
          <mxGeometry x="370" y="280" width="60" height="30" as="geometry" />
        </mxCell>
        <mxCell id="ACEPfVbA1j1k4u8m79z--31" value="声明" style="text;html=1;strokeColor=none;fillColor=none;align=center;verticalAlign=middle;whiteSpace=wrap;rounded=0;dashed=1;" parent="1" vertex="1">
          <mxGeometry x="370" y="420" width="60" height="30" as="geometry" />
        </mxCell>
        <mxCell id="ACEPfVbA1j1k4u8m79z--32" value="赋值" style="text;html=1;strokeColor=none;fillColor=none;align=center;verticalAlign=middle;whiteSpace=wrap;rounded=0;dashed=1;" parent="1" vertex="1">
          <mxGeometry x="370" y="570" width="60" height="30" as="geometry" />
        </mxCell>
        <mxCell id="ACEPfVbA1j1k4u8m79z--36" value="" style="edgeStyle=orthogonalEdgeStyle;rounded=0;orthogonalLoop=1;jettySize=auto;html=1;" parent="1" source="ACEPfVbA1j1k4u8m79z--33" target="ACEPfVbA1j1k4u8m79z--34" edge="1">
          <mxGeometry relative="1" as="geometry" />
        </mxCell>
        <mxCell id="ACEPfVbA1j1k4u8m79z--33" value="JavaScript 代码&amp;nbsp;" style="rounded=0;whiteSpace=wrap;html=1;strokeColor=default;fillColor=none;" parent="1" vertex="1">
          <mxGeometry x="80" y="720" width="120" height="40" as="geometry" />
        </mxCell>
        <mxCell id="ACEPfVbA1j1k4u8m79z--37" value="" style="edgeStyle=orthogonalEdgeStyle;rounded=0;orthogonalLoop=1;jettySize=auto;html=1;" parent="1" source="ACEPfVbA1j1k4u8m79z--34" target="ACEPfVbA1j1k4u8m79z--35" edge="1">
          <mxGeometry relative="1" as="geometry" />
        </mxCell>
        <mxCell id="ACEPfVbA1j1k4u8m79z--34" value="编译阶段" style="rounded=0;whiteSpace=wrap;html=1;strokeColor=default;fillColor=none;" parent="1" vertex="1">
          <mxGeometry x="240" y="720" width="120" height="40" as="geometry" />
        </mxCell>
        <mxCell id="ACEPfVbA1j1k4u8m79z--35" value="执行阶段" style="rounded=0;whiteSpace=wrap;html=1;strokeColor=default;fillColor=none;" parent="1" vertex="1">
          <mxGeometry x="400" y="720" width="120" height="40" as="geometry" />
        </mxCell>
        <mxCell id="ACEPfVbA1j1k4u8m79z--39" value="JavaScript 代码&amp;nbsp;" style="rounded=0;whiteSpace=wrap;html=1;strokeColor=default;fillColor=none;" parent="1" vertex="1">
          <mxGeometry x="60" y="985" width="120" height="40" as="geometry" />
        </mxCell>
        <mxCell id="ACEPfVbA1j1k4u8m79z--51" value="" style="edgeStyle=orthogonalEdgeStyle;rounded=0;orthogonalLoop=1;jettySize=auto;html=1;" parent="1" source="ACEPfVbA1j1k4u8m79z--41" target="ACEPfVbA1j1k4u8m79z--42" edge="1">
          <mxGeometry relative="1" as="geometry" />
        </mxCell>
        <mxCell id="ACEPfVbA1j1k4u8m79z--41" value="" style="rounded=0;whiteSpace=wrap;html=1;strokeColor=default;fillColor=none;" parent="1" vertex="1">
          <mxGeometry x="250" y="920" width="310" height="170" as="geometry" />
        </mxCell>
        <mxCell id="ACEPfVbA1j1k4u8m79z--42" value="输出结果" style="rounded=0;whiteSpace=wrap;html=1;strokeColor=default;fillColor=none;" parent="1" vertex="1">
          <mxGeometry x="640" y="985" width="120" height="40" as="geometry" />
        </mxCell>
        <mxCell id="ACEPfVbA1j1k4u8m79z--44" value="执行上下文" style="text;html=1;strokeColor=none;fillColor=none;align=center;verticalAlign=middle;whiteSpace=wrap;rounded=0;" parent="1" vertex="1">
          <mxGeometry x="355" y="920" width="90" height="30" as="geometry" />
        </mxCell>
        <mxCell id="ACEPfVbA1j1k4u8m79z--45" value="变量环境&lt;br&gt;Variable Environment" style="rounded=0;whiteSpace=wrap;html=1;strokeColor=#6c8ebf;fillColor=#dae8fc;" parent="1" vertex="1">
          <mxGeometry x="270" y="950" width="130" height="50" as="geometry" />
        </mxCell>
        <mxCell id="ACEPfVbA1j1k4u8m79z--46" value="词法环境&lt;br&gt;Lexical Environment" style="rounded=0;whiteSpace=wrap;html=1;strokeColor=default;fillColor=none;" parent="1" vertex="1">
          <mxGeometry x="410" y="950" width="130" height="50" as="geometry" />
        </mxCell>
        <mxCell id="ACEPfVbA1j1k4u8m79z--47" value="可执行代码" style="rounded=0;whiteSpace=wrap;html=1;strokeColor=#6c8ebf;fillColor=#dae8fc;" parent="1" vertex="1">
          <mxGeometry x="260" y="1020" width="290" height="60" as="geometry" />
        </mxCell>
        <mxCell id="ACEPfVbA1j1k4u8m79z--50" value="" style="endArrow=classic;html=1;rounded=0;exitX=1;exitY=0.5;exitDx=0;exitDy=0;entryX=0;entryY=0.5;entryDx=0;entryDy=0;" parent="1" source="ACEPfVbA1j1k4u8m79z--39" target="ACEPfVbA1j1k4u8m79z--41" edge="1">
          <mxGeometry width="50" height="50" relative="1" as="geometry">
            <mxPoint x="370" y="1020" as="sourcePoint" />
            <mxPoint x="420" y="970" as="targetPoint" />
          </mxGeometry>
        </mxCell>
        <mxCell id="ACEPfVbA1j1k4u8m79z--52" value="编译代码" style="text;html=1;strokeColor=none;fillColor=none;align=center;verticalAlign=middle;whiteSpace=wrap;rounded=0;" parent="1" vertex="1">
          <mxGeometry x="180" y="980" width="60" height="30" as="geometry" />
        </mxCell>
        <mxCell id="ACEPfVbA1j1k4u8m79z--53" value="执行代码" style="text;html=1;strokeColor=none;fillColor=none;align=center;verticalAlign=middle;whiteSpace=wrap;rounded=0;" parent="1" vertex="1">
          <mxGeometry x="570" y="980" width="60" height="30" as="geometry" />
        </mxCell>
        <mxCell id="ACEPfVbA1j1k4u8m79z--54" value="" style="shape=image;verticalLabelPosition=bottom;labelBackgroundColor=default;verticalAlign=top;aspect=fixed;imageAspect=0;image=data:image/png,iVBORw0KGgoAAAANSUhEUgAAAVsAAADZCAYAAACOwJOKAAAgAElEQVR4nO3df0xcdb7/8Sdtlcm6MWlT5CJahkti/NpuJTWBtliQxv1udmnJuPxRus0GvDHrtTZB16qVP9pp/6D4Y7UkWNfNxkJMV0guSijsxqsphUpbSGy63dbbmHABFVmkwXyNa6a7pXz/mDMz5xzO/ALmQOnrkZAOM2fO58xMec17PufMeadNT09PIyIiKbVsoTdARORWoLAVEXGBwlZExAUKWxERFyhsRURcoLAVEXGBwlZExAUKWxERF6xIZKHvvv+BQOAaN/T9BxGRWUmL9w2y777/gRtTU3jSbyMtLc2t7RIRWVLiTiMEAtcUtCIicxQ3bG9MTytoRUTmSDvIRERcoLAVEXGBwlZExAUKWxERFyhsRURcoLAVEXGBwlZExAUKWxERF9zyYdvxa0/M30VE5kNCJ6KZN5fq6fgvL5v9layOssjV/67kzNfPUl5dmNAqO37tofzdgOX3WMzLJrvuaMvMdRwRWfpcDNtxzv/XBe7Zsy9q0EI///NuPve/m1jQQjDU7KFoD9/ZBp993U7B6rRuVcciYufeNMKlY3zlfZYN0ZOWq//9Bj/8+nHuS3LVoVC0ixe0yQZx+buB8PLmywpXEYnHpbA1qtptsSrWYFWb+38zZzWCPTRDAdjxa0/4J1nmdYiIzIU70whGVVset6ptSKqqjVeZxprLNf8e7bZoUwSajxWRZLkQtpG52uiMqvbd5Kpap/las2gVaeg+TqGa7E6xaFMJsQJbRG49qQ/bFFW1IeawswdbtMp2tgFoD9B4garpBxEJSfGcbernamOZzXxttJ1todtERGYjtZVtiqvakFhVbarnWBXMIpKIFIZt6uZqE+H0ZYdEA9Dp+Npo91WoikgiUjeNkMLjas2SCcX5mk6Y7aFkInLrSlHYLvxc7XxUnNEC1/yFBhGRRKQmbF2qasF5bjba4VizCchYRzjEOgpBx+OKiFna9PT0dKwF/j4xyco773Bre0RElqRb/hSLIiJuUNiKiLhAYSsi4gKFrYiICxS2IiIuUNiKiLhAYSsi4gKFrYiICxS2IiIuUNiKiLhAYSsi4gKFrYiICxS2IiIuUNiKiLhAYSsi4gKFrYiICxS2IiIuUNiKiLhAYSsi4gKFrYiICxS2IiIuUNiKiLhAYSsi4gKFrYiICxS2IiIuUNiKiLhAYSsi4gKFrYiICxS2IiIuUNiKiLhAYSsi4gKFrYiICxYubEdbqPRU0jK6YFuwCEzS+VwRRUWNXALgEo1FRRQ918nkAm+ZiMwvVbYLZaKTvUXbObX1BH19e1gHwDr29PXxdt5hthftpXNigbdRRObN0g/b0RYqPR7qB8xXjtOyayGr6ks0+g5D7QleK1s149Z1u/s4UQuHfaGKV0Rudks/bA3+hhbGF3ojDJNdTby38SVqHYI2ZFVZLS9tfI+mLk0oiCwFqQtbo6L0mH4qW53ibpyWXdGXGW+ttKzDU9dvuZ+1YjWv01S5VvjwtVVT4zj+zG3weDx4dpnCeaAez64W+o1tqR+IbFfs7XWqnic5c/Ism7ZuJnrUAqxi89ZNnD15RvO3IktAisK2n/q8avJ7AwQCkZ+WHZm25dqpzsthuMZYptdPe1VNOKDGWyvJqYKmwdA6evAfKjECN5PctXBhaDy8rMdTTzCKhxluyyc3OzSOj4ZeP+1Vx+jHWW7NSGRbB5vwtVVzzBzkbdW8QQOBXj/+Yg81xuX2ju5wKAe3N58eYz0jzVCdV28b82uGz4H33thRC7DqXi+cG+bruEuKyGKXorD14q0Af7E9aGby9wbYV2D8ku3FF75lnO6Odtj/LJXh0Czk8WYfHOqmH/Dm+WgfHDaWzce/30/3ADA6xIUKL17zQAWP01Thp6TOaYsyKSwwvRFk55JPJMgBqGiiIfRmYb4c1s+xqnb8vfsoDK31YR8+jG0KmRhmOM5zIiJLT4rCNpPK4wECgVK6nT6Wh/nwZjvcHQhWp+DLs0Qmmbn5wAWGRo3Ll4cYH+2mHS+PP+oPBuToMJSXYo3DTCpfacJ36A3nHWMD9aaP/yX4k33Io0NcAPzFpqmIvGra7ctl2N4EROSWkOIdZIXsCwQIBEZoopocx8CNJlgdByvXiPGhC4AxRVBQir+tne5PjHDN9kJHN/1DF8jPtVeeQHYlDc1Q/cIxa3U5UI+n+IJ1uiLZh2pUw37b1EkgYKrcAbgb70YY/jL+TOzkl8Ow0cvdyW6LiCw6qQnb0X76narHtbk4RGAUmZSW+8BSiQY/qrO/1Pio7sVb0U511QV8D2dCdik+qimpImrFnLnjWfxtfvxtkessAQ7hKjU5hZTuT2TqJNEdX4nuSBORm0GKKtsh3sgz793PoZomRmoL49/VJHNHi7GTyfTxfn8PgfB6gjvJqPBRmm363RycMxSyr9dat2buaAjO54a29wV4ttlHe1WO6eiH+AprA4w0X4isx/ixHzGxqqyanecOUxfjsK7JrjoOn9tJdYzDw0Tk5pE2PT09HWuBv09MsvLOO9zanlvHRCd7o3yx4dLRIp48vomX2l9jW8YCbZ+IzKtb5ksNi07GNl7rO8EjJ7fPODfCk7xNX5+CVmQpUWUrIuICVbYiIi5Q2IqIuEBhKyLiAoWtiIgLFLYiIi5Q2IqIuEBhKyLiAoWtiIgLFLYiIi5Q2ILtXLYeU8eHm3ScGewt05eeS0eLKFJHYlnEFLYABfvC554dafbFX36xj2Pm2DJ96Vm3u4++t7wc9hWxV00yZRFS2C5psVumLznr99DX/hLUbafx4kJvjIiVwnYJS6Rl+pKTsY3a2k2819yprsSyqKQ2bGfMUdpPpN1PveV2a+vv/jqjdbllPbZ5zoRapsceZ7aPx7mN+lzNbKs+cxx7+/cW6mcsF6vTQz/1nkpaBoznrq4/8jzuamHceL4cW88P1Iefv/HWyuDyltfA/tzan3uP5YTs462VeOr6g6+1cd/gZfvjsT0vMVosrSp4hE3nTnFG87eyiKQsbMdbK/EU+2f05Ir04+qnPtR5wdL62/bHeqgET4OXkVAvM0uH3ERapic4Tjz2PmW9fvzFswztqMZp2WV0tQiYxzEHz8xlnh2sduiZFq9lejvVDdAQag//gnG5rZ3u0WA3i5mt38dpafDja26IdDxuqyYnb5hnjW3p2d9O9QvWICw1vz69flurI+BQCd2PBsJdOYKXffg/7o+MuyuH6rWh19DoaReti0aGFy9nGR6L+WSLuCpFYRtqQ95ja3ZoMtCNHx9NVZFWOZk7nsVPO+2fWFuIjxyvNHqXhdrehCTQMj3RceI8nhkhU1Ca5DoSMNpNexv4ayojvdoKHqepgkjwOCxTWNXEjN1tcVum+2h6JbQO82XzuH7eMFe3A8eobvPzrOXNzE9PINK+3Ztn35JCCs3/B7K9+Ghn2By25v8nTv9njHF7TO2Qgv3pul06mkNk7lIUts5tyM1mNFkEHDvqxmwSGb9lesLjJPB42qty5tbuPJ7RYdpntHc33mAuDwUfl+MyDubcMj2TyhpzdRt6w3kcSye5ivjjjLdWxm7vHu/+QxcAv6W3W05VsmsRWVgpCtv4YZaZmw9cYMjyMTx+SDuL3jJ9fsYJPh5f88iMNuXWKYs5cqr6GGfoMpE3nWzvzCrWUeIt06MyV7ej3bTPqGrjG2+tJKcqn57QczboUIXHEXwN/ZF1hH/24dhCdGKYYTbhzUpyIJEUSlHYhj7mlUTfiWR8DK9uNu8seQM/vmBb8kQk0jJ9PsYxHk97VU38OdqJTvYWFVH03Cz2hmeX4qsAf4OpOh84RnUb+B81YiU7l3zL4xmn5QWnajHRlumxRKrb+uZqsFe1CRgebLdWv6PDSVe2wdfQPFcf2+TAKc5ufITN6uEmi0jKdpBl7mgJ79xxPlKgkH2hnTPhj4bQNNgSmReNK5GW6fMxTujx5Jvaqkc78mEuMqk8blTnoTGMnYyRecxC9g024Qs/nhqoca4WE2mZHpdR3foPJV/VAhTW9uBvMz2ej0vp2Q/+4mSeu0L2BUZoulxiParB6Rt4E53U1Z1lZ9U2h6MwRBaOGj4uBaMtVOa143N6A4nRMj0xwSMB2stH5nfKJBUuNlL01HtsulW+xCE3FX2pYQnob66mvcJHqVOl7tgyPXHjrTUORyAsPpeOFlH0FLzd16eglUVJle1NqL/OQ8kh0xWWw+Pmg3FcaxvYD+0SkdlR2IqIuEDTCCIiLlDYioi4QGErIuICha2IiAsUtiIiLlDYioi4QGErIuICha2IiAsUthLHBOd/k0VH1hE+t91y9YMn6PjN+1xdkO2avc9fz6Ij6wnOq5ODuEhhK4nZvmaJnUVrHT/W+W7FRQpbiSODH9+/0Nswv1blli30JsgtaMVCb4AsfsFwymH1Qm/IPFmds24JVuqy2KWmsh1o48CubuydpCda37FcP9H6Dgc8R0w/79Bj6oTwWd0RDtRdDq4vtIzDemMZb03HU7eC/rp0PJ50o1V28HL9ADBwe/h6u/66dDy7bmOcFdQby4fu6/EE1ztjLI/1J7Le5bTsSqd+ILgu83o9ntutJ8E2tin0k5qW6Ylb/dgfKf/tQ9EXGHufD7Oy6MiKNhf6KafDt2fR8fqnsW+3rSM8N2wZxz6HbF+H0ziGDc9Q/odfLpk3D7k5pCZsC7awlb9y0hIS3/BZx3c8UFNKuFtJbiF7As9wMPAMBwO/YmvFd5xsvmxd16GPONCwKrjc4IPMqtPJoeV0P3rNaJWdHr7s/3gFFPyTnv1Q3Wwr8kdv441D0PTKv8KnLvQXp/NG3nUCgWsEBm/gO7TcGoS5U4wErgVvD1ynqWLmev3FyygNXKeJZeR4jMsVaXSH1jNwO57iNJoGjfX0TuMvdn4zcDbBuT3/TtO/O/98eCH5py+mE09zZsMX5I6NUT42xv3Pd/HVAfNOs085nbWNH45epHxsjPKxTla+uo0PP5iw3P7t853G7WNsPgpfbbCFtmWcTlY6bEpm11h4HeVdL8Krb2knmCwaKZpGuIsHyu/k5MeXocDoPT5wmpM8yB5Tm+qMgrWW+2SsBS5/wwRrI6Fa8SB7jhsBnV3KnuOz2Jz9U+wrgPEh22VDYdUNfHnLaam6Hu500N+8jPb9U7SYTsjta75Oy46p4C/Z0+TbhsksuG76bYrctSvgchrjEAns3n9SyHKGbJeDltPSkIav+bqpZfoN/Cyn/ZPlVIbGjimDjY3/y8YElpwfL3L/2DPcZ/y2KrcMrkRuvfrBW3y7/U02PxZ6RR8i83m48pfTXH3sl6w+f5pvKeOenZHKefVjT7Fy9zYmzk1A+H7mcR5iy5i90n6I+zaYfs1aQzov848xQDvCZBFI2Zxtxo5CHvD001O1lpJs+OzjL8ko32KrTC/T6vmIz8xXVdhWtPau2VWzycj+F8/uT6ekeQWVtdcjVe3gdcti+bnxwm4F9Z7l1hbn9scTU1qwZXrbCjxV1pcm2Y60rokz9zk51AUnujiT9bTtfsF/ro5cYuaRAWu4Yzt8O/QFhF79BOZYr37wBGd2d1mu+1HcByDijhTuIFvLT/Z/RGvzZUpq4W+H7mVr4C7T7cGgnWj+FQd3BK//rO4IrZed15Zq5uq29JOZVW18waC90HydgFGB9telU5LU45kOtkwvN1XQSZvg3J5CrvzZ+das9/+Xn9lL8hRalVsG23/B5mhzpDnrgEt8b6lAv+AfJyD952sSHicYtOu4f+yPwep37H0+3PB0vLuJuCalRyM8UPUgGXlX6Mn7f0w0b+MB842j3zABZOSGAvgbJhYoaAFTdXs7foeqNq7RNC5grn6XM5T045mitHwF1VUraHl4KqnuvxFuTyPEtnrjL0jf/TSffrCFnz3m8BllwxZW8jJfvfcpG4ydcFc/eCs4tbAx8c80k0NdsP0Xkep37AuuocpWFo/UHvqVXcrW/UdorbqTrYN3zbhtR/MQjcVHOADAnWztfZCM4r/S2DbJjkBSn7/nRbC6XYZ//xSBZIMu+180NKeTU5wenkZo6r2Br3gZOW230xNIrFLN3HGNQO7tePLSqTZdb5kvvplk/ZKfjeVwOms9HbtN129/06h2H2LLWCens7bR8WroxjLuOf9HNiQx13rfbzsZz9oWma54vpP7n3+ZK2VZfHj0onPQi7hIPcjMRm+jMm8ZvsFrs6wqRUSc6RtkYctpeSE4V6ugFZH5prAdvY1KTzoezwqq104RqE1yrlZEJAGaRhARcYEqWxERFyhsRURcoLAVEXGBwlZExAUKWxERFyhsRURcoLAVEXGBwlZExAUuhO1lWmO0vllcvqFn1xEOeNqs59hdTIxvvCXeuWEpmqTzuSKKihq5ZFxz6WgRRUV76UymZ1IsFxspKiqiqKiIvV2T87RSuZWlvOHjZ3Uf8dn+n3Kwdm38hUXimehkr+8w1J6g73eR04mv291H38ONFPmKOFV7gtfK5tLO8RKNT73Hzrf62LN+7pssAimvbC/zt0PwwKMLHLSj3TQmVFHfRcnxZzgYqLCee/dWZFTQ1maTwaaVC1dVX6LRCFrHMF2/h772l6BuO40X5zDMxDDDbMKrdjoyjzRnKzH5G25jfKE3wjDZ1cR7G1+iNlbVmrGN2tpNvNfcyaw//Gd48XKWYTWLlHmUomkEW2+x8AnCiTRwHO2mMW+Inwz+ByXGKQ0nWt+hsSM33ODxs7ojtPJTDj56hQPFXxoruJcd9spzoM10e9ADvc+wo8C6HSfzjnDSuJzR/Cv2GO14Ztzf3GQy7Bt6dv2Jk232MYxfwo9nG7wQWc4yTiKMc+q2m65yPnH4clp2raC6LcoyRpfeyGO6wcjxYKfg8dZ0cgadz3A23ppODddpeRioAF/bMmrKl0c5cbl1G+zjhFoFeXtv0F4cPH1loCot+PgsyxnbVBVZTdOMcwpPcubkWTZtrY3bi2xVwSNsqjvFmYltbJvVOcPvxrsRTn05CevnMh0hEpGisF3LjsBaQqGLOZSSdegjDlx+kD2BCjKMwGutuxyeA55ofYfGqu+swWffDodgtyio4GAgeNG5D5oRtDzInoARwgNtHCg+Qqtl3O84mfcnHuh9hoPHQ8t00vNwlHFnWEF93jLye6/REuf5qs5bgb/3GoHjGMFqaqVjBK2/9xr7CiAUijm7bgsGXO40dBhdf41wzzeWHR6E/EenCH7ouUFDbxo5xcvp3zFFocN25NZcJ3DcCGJjXcdqMMY1trUBRgJT5HuW47l8I3y5+xWozA4F7TQ9gX9SiPF73u3kGr8Hfc3wOfBWJRB+5sp0VmGbxFgiCVr80wiWKtNodx72DZ91fAf7fzr7ME/E6GX+1gYP1Jiq3YItbK2Azz62JrMl9LNXJfm3Hmz46C++nf44S0aCFMietnTf7f84DSpu8Hj4OZmismYa2pbRPWos35bGMDD+yTLy90/j/3gFob5pXvMbQ8EUTRVplNQ5vS9PUVhgqniN9u4XhpZblmp6JVLBmi8HreBYVaite1DmwzfwkUa3eb54YpjhOM/J3F2isaiIoqJTPNKnnWMyvxZ/2MZsZT7B39sgIy/F/aVGJ5ngTv7NUp0awX852LgyyL5MsqaoPH6NQOAG3Z50PJ50PLuc50y9UccxGk2unbaGmhHIw0bY5pPG0OhyujvAW3UD/+U0xkljmBuUWtY9ReUrN/AdWu68Y2zg9uB2etLx2Nu4J8JolOkvTo+sxzaNAhjVaqqtY09fH319j3BqPg8jE2GRhe3E4HdJ3iODf6uAicEU/1VkryKD7/i7JWyMbsAx3wxm6zr7AtcIBK7TxDJyogSusyly1wKX06z3GU2jnVBIX6d0P7R/sswI12m8LKN7II0L9pAGo5klVL+w3FpdGtMVTYPXCASuEQhMJR+2RjXs7w2tI/Kzz/JpJTiPOvxlAru95nw0wd14N57l1ICOr5X5s8BhGwmwidZ3aD2U7P3v4oHyO+HQR7QOxFgs+y6HsExC9lp+UgGfNXRHqtiB05xsm+fD2kZX0O+0jU4BGEPho8Epg2Ph52Q5LQ3BqYVQ1erNg/aqZVwov0EmU5SWQ3XxMshzbtyRuWMKf1saftPOsPGhNGCa3FAlbFSpyQkGf/ypk1Vs3rqJsyfPxD3KYHLgFGc3PsLmWb8LGnO292rOVuZPyr/UEJWtlXlG86/Y09xJY0dyq8nY8R8czA3urDpgvt5yFMBatjb3m9qmA0l90eIuSo7/Cnb9iUbPX8PXOu+Um4s03shLt36ErrjBSLJ90Qr+SaD3djymturY9v5n5k4DafgenrL8np8brV36dfb1LsNvOsIhc8d1mjpWUOJJD4/R0wwlVSvwDKYRqE1scwtrrzGSl05OaD0Gy7w0sKqsmp11T1LXtTn6lxYmOqmrO8vOt16Le9RCVEZl/IiOs5V5pB5kcnMxfYNsRuBebKToqffYNB/fICt6EvQNMplHi2rOViSujG281neCR05un3luhKfg7b6+OQYtwDr2vLWT957SuRFk/qiyFRFxgSpbEREXKGxFRFygsBURcYHCVkTEBQpbEREXKGxFRFygsBURcYHCVkTEBQpbSbmOrKyYP/Hum8z14my2z3O02xJ9/vU6RShs500/9R4PHtNPfawzkS36cWaa7NpLUVHRzGaKY+/zYVYWHa9/6ni/8rExx5/QbXapDdhPOZ2Vxenz87Cqm0j52JjrwdeRlWV5fRN+s43x/2neW9a7aOHO+rXkFLIvEGAfwGgLlXnVN/k4ZpN0Predw7zEib7oZ9NKz13jeL39j85+nf32UDDY/1CdglkS5/QaRPt9rs+10+uV7Dqd/j/Nb8t6d6mylbguHTWC9nfbnIM2K4cfOVwd+uO1V1XRgja0TLx/zetJZCpiYQQr6A8/sJZgn7/uflUdq5K0f8pwqkRDl52uc1qn02ualCj/n8Lmq2W9yxS2EttEJ03HN/HSvihBC8Aa7tgOP8qJfrZup4+x0apV+x+9/brQ/WJNRSwW13Yf5/MF3gb71E0s5tfE6TmOFc7m8eYm/v+neWlZ77KbIGzHadllnaP07GoxtXyZebtlDnO0hUpPJS2j1uUqW62NZvrrbGN46m2dA+KMM9vHY3ks82igPsZz5rRMPS2tlTOWS6zrQQYb/jDGlg2xNymZj5X2P/rEK6QJzv/GNi/4m/e56rDk56+blrHPD54/EnUdVz94Iur89NUPnjBVs2Wkb3+ZK1GWjb+tn3I66wnOnzfNYYbmM+2Pyba9TtVzIlMx8/nGZa9wE99Jmtj/p1UFj7Dp3CnOOM7fhpp3Rk7DudAWedj2U+/JoZomRgIBAqGf45VGx4FxWnbZbu/14y+2B2E71Xk5DNdElmmvqgk3MBxvraTksm2MwD5TG+1Ex4nHWM/aHmOMEZqoJqcuXi/dJA3U4yn24+8NWMcxB6l9mUEv7VUz2izy9chZyPPOvuuBSaw5Qvv1TsEc+sOMFb6fv76er+7vtO6M+8MvWW1b7tuyLIZyLwZvP/8m6a9uiwTU+SN0lL3Myq7QOi5yD09zxgi41Tnr4MpIMOyM8Avdd3Koy1SRrSP34Jukv/oW56Nk2I//82JkO8+/SfqJp/kfS1B28dXv4aGxTla+uo2OA8blE3/mi9A6zx+ho+wS95w31tP1It+WPRF1TPuUjtMUQTSzPQoh2s7RRCtuR+aW9TeBxR22A9348dH0SqVzD67RbtrbwF9jur3gcZoqwP+xNcD8vQFT62+vpfV3Zm4+tFVT0xqlxkxinNiP5xjVbX56asNNuykt98Gh7rity5PR/7EfKppMrcwzqazxQ1t7sJW50zLZlTy7376mSYYH52ebYgWoXawdZ/H+MFflloE5OKNIP3qRnz1mhKJtjvDzUy/D9jf5P+HKKoMN//kihAIuaw3pJ75gErh67s/86PkX+fbUp8AE318p4w7zQ8r6JbnPd/HVAafqOoP7Npg+Mhjb8cOIuVQr456DoTcL8+WQCc7//mXSjx5mQ2jcDVtYSRcT5yLrMQeq/TkN/Rvvk0ZouUQCeeGndkKdkvewboG3JGRRh+340AUgP9JQ0G50mHZ8trbemUZ32SHTx2H7MjYF+wgEAjRQE2UqItFxEnk8fkpMH+9zHKrJuRk3Wpnn2lqZe/HRHmxlHm2ZGVbhzZv7FsX644s2lxtvJ0w0qx/7I+VjY2SeCt3PucKLPh84wfdXgPtzrKGWtYZ0uvjHGEYoXuL7sQm++AvcsXMLK6+McJUv+Ae/YI1tU+/7bScrZ1SsBsvH/218m9CjNPuCf5yAa7vXR13PbKdkzM+7U0BHs/BBuzgt6rDNzM0HLjAUrSuuJUBCEg0Sh/F2tDhPEczTOMHH46fHMl1hn7KYqyhvApY3DGOZBNydswkGh+e0EyLZP85EdsLEc99vg/fbfBS+2hD9I/VMGfz4fiLTBCFjX3CNUNX6EJnPdzFx7rQRrmu4gz/zxfkRfrCHNMHlt3S9yLdlR6yvif3j/1gnK5N+pMGdSelHL1o+lpePjYUr99kegjWnj/humHPLenct6rCloBQ/7VS/EGUnUnYpvgrwN5jnIo9R3Qb+RxOPr/4Bpw/xpkp2nsYJPh4/JQnM0QYP3nb4AkECCh/1Q1u1qZX5OC0NfqjwmVqZ++DQG+F5awbqKXFoJR97J0RykqlQ4y3ndCwuTPD5eacNXcePk/iDvO+RF8FSiQY/qrM9UrWuyi3j2u6n+eHnW1hNBmt+Dl+VPQ1RjjVmwy7u2f4y374auerqyCXrto2N8EPim2nIYM3Py7i2+6Uk3lCcJfrxP968uVti77xdfDvIFvmXGgrZFxjBuyuHHI/54H0/PYF9FJJJ5fERsN1umZ9NxMcleIqtV/l7A1SGpw3maRzT4/F4LKMZj2eeFOwj0AueYo+plXkTI8cjc86ZO1roGfRQkuehGmB/Dz37/ZRctq0rYxvVuwanmFwAAALDSURBVA7zZH0nm6MdZ5ugZKok+3Gaid73+9+vp+OE+Zoy7jn/DPclPDKw4RnKu6CjLIuO0HXb32SzaUfb6pzgTGDGxgzT710xpicy2HDwTSZOPB2+ZvVjh7nnL+u5kvUyV4wx7j9axpXd6+kY6qT8t4lt7urH/kh5zhE6NmTxlel6y7x0DM5vXMlzda52PlrWu0wNHyWsv85DCT0Eau2xb/oGWRKBO5vKx35Qfei6aN8oWxw7Y24Osb5MEuu5jPVtP/MyMPP1i/bazOl1S7Rl/UQne+uhdo5FwnxZ5JWtuGa0hTcOgb/Xqb5exbbf9bG5ay/biw6z860+9qyPv8pk/5js31aK9hVepx0+CtzERQtP89RAMl9CibZ8tLHn4tLRIp48vpO3+/riHGVwiUbfYbxv9S2KoAVVtrcu47wK5mMhkp8WEZFEKWxFRFywuI9GEBFZIhS2IiIuUNiKiLhAYSsi4gKFrYiICxS2IiIuUNiKiLhAYSsi4oKUhW2o7fVsz1wlIrKUpP4bZBcbKXoK3l5EZ0wXEXFb6qcRsrxsSvkgIiKLW+rDdmyYsxu93J3ygUREFq+Uh+3kl8OpHkJEZNFLediuutcL54b5OtUDiYgsYqmfRli/h752L01FRRQ91zmnxoEiIjer1HdqCB+N0MdrKR9MRGRxcmfOVjvIROQW586crYjILc6d42y1g0xEbnHuHGeb8kFERBa3lO0gm+zay/a6YMzufCte22ERkaVN3XVFRFygUyyKiLhAYSsi4gKFrYiICxS2IiIuUNiKiLhAYSsi4gKFrYiICxS2IiIuUNiKiLggbtguS0sjzpfMREQkjrhh6/GkE7j2LwWuiMgcxD03AsB33/9AIHCNGwpcEZFZSShsRURkbrSDTETEBQpbEREXKGxFRFygsBURcYHCVkTEBQpbEREXKGxFRFzw/wHE+kjY5I6uWwAAAABJRU5ErkJggg==;" parent="1" vertex="1">
          <mxGeometry x="24.06" y="840" width="191.89" height="120" as="geometry" />
        </mxCell>
        <mxCell id="ACEPfVbA1j1k4u8m79z--55" value="" style="shape=image;verticalLabelPosition=bottom;labelBackgroundColor=default;verticalAlign=top;aspect=fixed;imageAspect=0;image=data:image/png,iVBORw0KGgoAAAANSUhEUgAAAUoAAACJCAYAAABKInGrAAAZU0lEQVR4nO3df0wcdf7H8Sc/7G7OxnyLpYjUAsfV9Fu8tuESaIuFtvHO+KUl9PgDKrmAF+OP2qTqWa3ke+223wvi1dM2weqZi4WYWkhulVDQqE1bUNpCTlJ7pdd4hwUtIsJhYqpZTijfP3Z2d2aY3ZlZdgHh/UhId2dnPzOzsK9+Pp+Z3XfMxMTEBDpfDY2w6Jab9YuFEGJeip3pHRBCiNlOglIIIUxIUAohhAkJSiGEMCFBKYQQJiQohRDChASlEEKYkKAUQggTEpRCCGFCglIIIUxIUAohhAkJSiGEMCFBKYQQJiQohRDCRPxM70AkNP3GSeEbHsvrmjFqy842zLbraydUm5HYnvr5U21PiPks+kF5qZqmv6ax3lXK4iCrDL9fytkvn6CwIiesTRS+4bEVBKGCykqQhlpPH05Gy63uY7Bj0m9bAlCI6IpyUA7S9dcLLN25J2hIQgf/eGMNK96wFpKhgsxKeOmXT6WnZRay6kC2Q71+sLAN1bbRMU31WIWYz6IblJeOci3tCQqDpyTD77/E9785zJ0WmzQKJ7tDTH24WA1f3+1wA9AqCTMhZpcoBmWgNxmctzeZ/kaS7dbNAjHY4+EMgYO1F+6w3UywKQEr+x5qPelVChGe6AVlFHqTduhDIZwQs9szjRSjfbdygslKCEpYCmFflIJyZnuTPupQCBY6dsNG316o9ULdN1ru21+jx/TD/mD7ZRbevn2XsBTCupioVGG8VE3T3zaFPIs9/H4pH3OYe39lLyjtvsGNgtBMqDPNVsMo1D6YLTcTTm9zKtsTYr6LQo8yur1JO0PpYD0/sx6lmtFZZwkgIeaXyAflNM1Nml1naDZ8DnVfv51gz4lWONq9zEkIEV0RDsro9ib1jMLSLMCi1RsMNocYbvtTOaMuPVwhIiuyQTkDZ7r1c4Z2epKhlod7GdF0iXQwCyGCi2BQTm9vEozDItTZ4UidUFGfYQ7nWk6r2wglGp9HF0IYi1xQTlNv0qz3aDSnaHamOtScYKi5SfXjRtubSmjZHXqbfcGGUZtCCGuic3mQEELMIfJ9lEIIYUKCUgghTEhQCiGECQlKIYQwIUEphBAmJCiFEMKEBKUQQpiQoBRCCBMSlEIIYUKCUkyLT16sY+WL/wzrucNvu1mZXBf4mdTOPzmYXMfKhzoYnvquWjKV4xE/PtGv6y3EVAx08L874P+6yilOnumdEfOVBKWY1YbPX6Nt61L+EDIkl7N7YDm7p2unxLwjQ28hhDARuaDsdLOv7DRDusVDDa9rlg81vM4+5yHVz+u09gfWv1x1iH1V3d72fOsYtBvKYIMDZ1U8HVUOnE4H9f34b1d3Ap0L/Mv1OqocOMtuYpB4qpX1fc91Or3tTtqWU/sTaDeO+jIH1Z3ettTtOp0L6NC8fgs0bVR32jjgSBno4JFkN+6BwKLht92auT///YEOHvHPG2qfA0DXe4E5xYc6+JfB5rRzjwbbTa4jb8d1OHGFPNUc5cEuo+cHn7s82KXMKQZd79+4H6rT7O+kuU4LxyPmrsgNvbM3sJk3OdW5iZJs38Kvudz0LSt3bSLRtyg9h52eTOX+17SWvcmpum7yKzMDbR34gH3dq9npKSax/zQ1T4exPwfiON02Sl+Gg9QMBy7f7ZPx7Kn8D617HeTXxVNaORZ4Tv9NvHQAant+IEl5aVx5Di7UjeHxjEP/TZRmxFF9zxh7fMeYPk6fZwzvVxHHUV8WT4WuXVdeLK2eMdLK4kl1Tvhvn+6EnGy8IZkXQ23PKKUpvvsO0nz3TQ1xfmcOV94xfjT5rc+4d43dFzCEE1fIO3EbxwfKeRVvCG3f10H+azksBm+oFHzFAy3l7M7CG8BZoB4bD7/tJm/HQo4PFLPadz/rPX42cC+rgcXbirm8TVn+7lLafG2r+NbxBl0zvw+yu0cL6ug5soXLA7cq+3KWgxuXe/fN99wV67n82nL//bwXE7j85HJvAxaOR8xtERx6L2Fl4S1cPtkdWNT5IadYzebswKLE7MxAaLKExEyg+2ttj7F4NTuPKeGasilw246944EwU99W5JTfoOhAnKZX2VEXS+PecU04FdWNUV8y7r2TMoE+b5KyfSEJME56JtAdw6BqHVfbf8gxuO0VR/3hGIrqxgLbzb6BC2j8KM7iwSaytuYzKj4z/oloSAJwG8eVQANISV+oefSTM1/B1hU8kKUsSM7hUU2o/JOjO67zQEugjcVrl5LHV7zfFel9hbwjW3h1263KviSQoX6w62/8/sRtHPeFIreSf99COPgZn1g+HjHXRfRkTmJJDiudHbSWZ5KfApdPfkFi4QZdyHXT4PyAy+pFxbqGMpfYD0a7Un7gCXWv0t+bHNOstiZ93KSheKqdcbjUi/THE1IMvW5odMfjLNf+OorsNDOdtv4XwTu6/+ZfV4AVCZN6gH4DI/QAbQV1HNU9lGG0/hRlpN4a9LHhvuvAdbYn1+ke8YW/heMRc16Ez3pn8vO9H9BQ101+Jfz9wB1s9ixRPe4NyaG6+9lf4l1+ueoQDd3GrUVbTvkNijLiqC8fY9NH3t5kvaWhro83JC/UjeFRep0dVQ7ybR3PBGnFUFSo6rnaFr2hd//V6zafcSs/W2GyitKry/ANZWfQ4tSFwEJND1nLwvGIOS/iZ71Xlq8m8cAVWhs6GKrbwEr1g/3eIXZiui88v2ZohkISUHqVUFG3gKPlUFs+Zv4ctf4YLqDudcZx1fbxjLOpEBrL4w1PLlkTyaH3dT5TTqoMv+1m+0H7e5OSvhAOXvSfnJncznJ+tRuOFrznH97OmKyf8gBfsT3ExePmxyPmushfR5myic17D9FQfgube5ZMeqyk7io1eYfYB8AtbG5bTWLeJ9S4Ryjx2BqzRoS3VxmLa+84Hlu9SSDlBw7XOUjNc/iH3rVtNyjKiyXVvYBWj7UeYlLJKJ70BTgzHFSolmvmR6dDcg5/OHKNPGVInHdkC21HzpD3rr1mFm8r5vjVOrZn1fF7pZ3ju5vZrlpn9ZPltKW7ydMNeR+Y9l7mcnYPJPDTh5pZmXxWtTwwD2vleMTcJsXF+m+iNCOWIstnmIUQ8808v+A8jvqnJ5/pFkIItfkZlP03Uep04HTGU5E5jqfS5tykEGJekaG3EEKYmJ89SiGEsEGCUgghTEhQCiGECQlKIYQwIUEphBAmJCiFEMKEBKUQQpiQoBRCCBNRCspuGkKUe5hdvqa17BD7nG7td2TOJsonicL/dqG5YITm3+WSm1vDJWXJpSO55OY+RbOdOiGhXKwhNzeX3NxcnmoZiVCjYi6IShXGy1UfcHnvL9mvLu8gRLiGmnmq6DmoPEH7nxL8i+/a0U773TXkFuVypvIELxQkhGjEzCVqHj3O9lfa2blq6rss5pYo9Ci7+fsBWHnPDIdk/2lqLPVkl5B/7HH2e4q13505Hyk9V21hM2+BtJnrzV6iRglJwyBctZP2xmehais1F6ewmaFeellHmtQOFwZkjlJM4jp8k6bmz0waaanl+NpnqQzVW0zcQmXlOo7XNRP2gDkxjTTO0auvJikEER1662rh+L+cl0CxsP7T1GRc5ec9vyVf+VqzoYbXqWlK9xcQu1x1iAZ+yf57rrAv7wulgTso0ff4Ot2qx71Wtj1OSbZ2P05lHOKUcjux7n52KiUoJj1fXdDMT6kS6dZvQ7njP54t8HRgPc12rFC+E7NRtcj4S3uVKo/uIOso1RwDx3SDvmM/kIS3rG5qj/E3JQ02ONjFGPV3A8VQ5I5lV2FckC8N1u6Dfju+8hhpbTdozPN+hZ2nPMZ7fJr1lH0qDzRTO+k7QUc4e+oc6zZXYjaoTsjeyLqqM5wd2sKWsAou3U7aWjjzxQismsoQXsxFEQzKTEo8mfgCE3Wg2KUuV6uEVUNVt3/Oc6jhdWrKv9WGln4/DEJZI7uY/R7vTeO6PUpIspqdHiVAO93syztEg2a733Iq401Wtj3O/mO+dZppvTvIdieJpzojljVto9SbvF4VGfG42kbxHEMJxXjq7x5XlbiNwdU2qlSc9AZaatlN3nBKn4Amb3XIJCWY1yjr9vbAmnvG8Q4wbnC4LYbUvDg6SsZ1FSO90neN4TmmhKjS1tFdaCpdVhyGPs84a5xxOLtv+G+f/iOUpvhCcoJWj7cq5WCDg9SMBaR71FUqv6T3PKSVWwgudY8wrKC0sS0x78zOobemd6eUtPXz1gpn7y/DD2Ir+rv5uxttTfLsDWwuRluSF10vMyXB5vvUW1zMlbeADpM1AyEIpExoqjR2nIyB4hs84H9NxindNQHuWE73K+u7Y+gFBj+KZc3eCVwn4/HV+UlTh3r2OLXFMeRXGf0/Ok5OtqqnqZTwvXBVW1q39o+BnqP6tlc8R8u1pXuT7r5BETGcVs+PDvXSa/KaTN0lanJzyc09w8Z2OZEjjM3OoAxZrnaIr9yQmBHlgrb9IwxxC7dpeoVGdcj169g1TumxUTyeG5x2OnA6HTjLjOcI04JuRylqljmhDSQlTHuVoFxDDFf74zjdBGnlN3B1xzBIDL3cYJOm7XFK/zi57rlf5wLvfjodOPWleq1QirK58hyBdnRTD4DSS4y2u9jZ3k57+0bORPJSIzGnzHhQDvV8a/MZidxWDEM9Uf6LTkkgkW/5ShMUStXIqNQdH2OPZxSPZ4xaYkkNEpbGxknPBLpjtM/pj6ERX8COsWkvNH4UqwTjBGnEcrozhgv6gAWlcBpUPB2n7dUpQ/zanlE8nlE8nnH7Qan0Ql1tvjYCP3s0owTvvGHvFxZO0Uz5rPXtpK09x5lOuX5STDYDQRkIn6GG12k4YPf5S1hZeAsc+ICGzhCrpSwxCDobUjL5eTFcPnw60Hvs/JBT7ghf+tQfT4fRPhqFVwg593iH2Uf9r0kc9Ye9w3FfbzEtAxrLY7lQeIMkpUxuRV4sZEz6knsAkkrGcbljcKlO3AxejQEmSPf1QJXeoT3e0Dafbkhg/eZ1nDt11vRs9kjnGc6t3cj6sP8HU+Yo75A5SjFZVC44D0pXrjax7n521jVT02SvmcSS37I/3XtiZZ96ueZscyab6zpUpXEBWxfBLyH/2P1Q9iY1zkD1aeMTSFMRw0sZDu2ws/gGfXbr+GT/B0/bApyq0rnozjInpU8AMRTdPa65H6hLrjfGnrZYXKoz6UklY9Q2xZPvdPi30VoH+eXxOHti8FRa292cylH6Mhyk+tpRaOZhgYSCCrZXPUxVy/rgF5QPNVNVdY7tr7xgenY8KKVHulGuoxQGpGaOmP1Un8yZFJYXa8h99DjrIvHJnNyHQT6ZIwzM+BylEKYSt/BC+wk2nto6+bPej8Kf29unGJIAd7Hzle0cf1Q+6y0mkx6lEEKYkB6lEEKYkKAUQggTEpRCCGFCglIIIUxIUAohhAkJSiGEMCFBKYQQJiQohRDChASliIqm5OSQP2bPtbNcGAv3dQ72mNXXfy7+niQop6SDaqcTp+qnOtQ3Gs367Uw20vIUubm5kwt3DbzFe8nJNL34seHzCgcGDH98j+lFNRwH3uK95Afpmmf1cAoHBqY9tJqSkzW/X8v/UYb4e4p4WeIwTO+3B805OezxeNgD0F9PaUbFj3w7aiM0/24rz/EsJ9qDfyuPI32Z4XL9G0a/TP+4702tf5MZhaqwzuh3EOz+VF9ro9+X3TaN/p4iW5Y4PNKjFIYuHVFC8k9bjEMyOZWfGCz2vfH0vZlgIelbx+xfdTtWhu8z42M+TE7mvbe1XZ9PX0zmw67p3ZNQPTh9796oB+i7bbTMqE2j36ktQf6e/CJVljhMEpRisqFmao+t49k9QUISgGXcvBV+khr8m3KNhn7Beon6N6x+me95oYbvs8XojmN8OsP7oJ/uCEX9OzF6jUMFq3p7U2P+9xSRssRhmqVBOXlOzlml/i7sQerLQszZ9ddT6iylvl+7XmmDtrhCR5VuG85q3Tdum2zHMl07ZfXRqZvdWa09HqPtaNappr6hdNJ61r4tPJGs1wbYkBV6l+wMxfRvWOs9kyG6HtLNgz30FsMm6+l7fnQdCtrG8NsPBp2PHX77QVVbBTi2Ps+VIOua7+vHfJj8IF1dqjk73/yd/ph0+2vUa7UyfRHJ/3T0PUvrJ/Ss/T0lZG9k3fkznDWcr/QVigt8FV+kzL6g7K+n1JmPa28rHo8n8FPpq9c3SH1ZKhXU0ud7rM2FK08fYo1UZKTSuyuwTmP5Ln+xrMGGUvK7VW14PHg8e1SlUq1ux4zSTqbvePqopYLUKrOaizZ1VuPMc+Fq82i3ow5B/To9aTSWTyrpxZd95yAjLfxvC1cJNSemX24Uqr43Vajg/PTFVVxb0aw9cfTar1msWauFa1mr+O4R5fGWZxjd8WzgBE/XIZoKnmdRi6+NiyzlMc4q4bQ49S640ucNKiW4fME0crVF1RO6i/T9L+M4+ErQk0cLH7kY2M+ul3GceIx/aEKuhWuvwi8Gmll0cAtN+5TbJ97hc83+XmJpV+B4vikIfsJKPw1iNKwOJtyz3cFO5Fnt6RpSlyWeRrMuKAc/aqQRF62VRhWlgf7TNLrBtas0UFMm+wFqi8F1Uhs+rjaPqrxrmqa8a1L6GnBXsKshSN/OxnZC6jxKhVt9PElsKiyCA6dNy9Pa0XHSBcW1qnK1SZTucoG70Vuu1midlFKe2KtvaYTensjsU6jw0wt1ksfsTZWQXgAHt5jOAy5qUfVYkpehLkLx6ZnnYevL/Le/R5NI1iPPgC+ckpfhOPE5I8Dw+Xf4ye5n+ObMx8AQ168UcLP6kJJ/TfruFq7tM+rVJnJnlqqrrszNfd+n7iIVsHS/L+jVt32G6Hr1eRxHniPLt92sDSyihaHzgXbUYah/TX3/mvXwfetZCdOZnw7xVdTcyV0RbnnWBWVvTyMUhyhT2t9LI0W60q1JShXCq6ohpH4dnew9eDweDrMryPDd6nZCG7x6AXCRrxoSpxr04qZmUClXm64rV5tGEY3ecrXB1pkkgbSMqe9RqDdOsLlLsxMGwSze9hcKBwZIOuN7nlHPShdmGkNcvwKsSNUGUvIyHLTw3QBKoF3i+sAQn78LN2/fwKIrfQzzOd/xPyzTtX3nk80smtRTVGiGzFv4xtJRqn3OdydgdMeqoO2EO42hft2NwjWYmQ/J6Jp1QZmWUQTuEIXvNW9+H6shMFlSSb3xsDpC20lKXwO4aNUM8fXD/KkKEuCasFfWseD21HXQ0zulCXO7bywrJwzM3Pmk93nrj8C1LDvXTSaycAWBobXPwOeM+gP2FyTtbmHo/IdKMC7jZt7h864+vtcHLN71N7Q8wzcFh7S/E/2QeaCZRbaP1Hviw3HkomYoWzgwwL3bvL3VcC/TmdKweDpMuSxxeGZdUCbdXUQRLvKDzeGlbKKoGFyH1XNvR6lwg+se69HT0WnUvqoHGaHtkL0JV6jj8ZvaRHTOPS5wV6jK1Q5Sf9gFxUWqcrVFcOAl/zwtndXkG5QLDj1hbo+dnqHZekbXWsIQn3YZ7ehdLLTxZrpz4zOg6QF6h7dsDfQWE9ILGN3xGN/ft4HFJLLsPrhW8BgEuZaUrDKWbn2ebw4GFg33XdLu20Af31vfTUUiy+4r0M6xhsnqkNlsnni6hD7RGL2TObPvgvOUUuo96VQ783Gq38TFtfQdKyWJJEqP9UFZKqnOwIXXmvlIK07m48zTLnK1eSj1D7UjtB1y2OPpI60sFadTszVaI9mrzN6Dpw2ceU5VuVrfa+aVVFJPa4+T/AwnFQB7W2nd6yK/W9dW4hYqyp7j4epm1ge7jtIiO70T/XV4Vp97/dVVNJ1QLylgadfj3Gl5y0DW4xS2QFNBMv7qyVtfZr3qpNDiVO/MV+LaRNX9lhCXtCSStf9lhk485l+yeNtzLH13FVeSn+eKso0VRwq4smMVTVebKXzS2u4u3vYXClMP0ZSVzDXVcseRi/5eZSjG/+nYN61zk5EoSxwmKS42z3VUOcmnVXVVgY/qkzk2wjKcHof+gmffsmCf1JkdJw5+HEJd6B/qtQz1KSr1OjD59xfsdzOl35vVssRDzTxVDZVT/A9eb/b1KMX06a/npQPgajPq1yaw5U/trG95iq25z7HdYr1ru28E/adAgn2s0ejkhISldcGCTz2ctvMBgWDrB9v2VFw6ksvDx7bz5/Z2k7PZl6gpeo60V9oj3uOUHuV8onxOXH3O3f5UghDzjwSlEEKYmHVnvYUQYraRoBRCCBMSlEIIYUKCUgghTEhQCiGECQlKIYQwIUEphBAmJCiFEMJERIPSV9rUsLypEEL8SEXnkzkXa8h9FP4chW8aFkKI6RadoXdyGuui0rAQQky/6ATlQC/n1qZxe1QaF0KI6RWVoBz5ImghByGE+NGJSlAm3JEG53v5MhqNCyHENIvO0HvVTtob06jNzSX3d81TKlIlhBAzLTrfcO4/693OC1HZgBBCTJ/ozVHKyRwhxBwRvTlKIYSYI6J3HaWczBFCzBHRu44yKg0LIcT0i+jJnJGWp9ha5Y3I7a+YlZYUQogfB6nCKIQQJuRr1oQQwoQEpRBCmJCgFEIIExKUQghhQoJSCCFMSFAKIYQJCUohhDAhQSmEECYkKIUQwoQEpRBCmJCgFEIIExKUQghhQoJSCCFMSFAKIYQJCUohhDDx//22iNDMWfOXAAAAAElFTkSuQmCC;" parent="1" vertex="1">
          <mxGeometry x="250" y="820" width="185.47" height="77" as="geometry" />
        </mxCell>
        <mxCell id="ACEPfVbA1j1k4u8m79z--56" value="" style="shape=image;verticalLabelPosition=bottom;labelBackgroundColor=default;verticalAlign=top;aspect=fixed;imageAspect=0;image=data:image/png,iVBORw0KGgoAAAANSUhEUgAAARoAAABuCAYAAAD4d9zZAAAP1ElEQVR4nO3db2gcZR4H8G8PoYvKQWtLiKnNxkDpYSi5FpK2axsjciBNw0pedEuQbKFUjT1itNY0L8LQF+n6B2u4WhGEbCilW3B12aZ4ihgTTdsNmAslxXIQs9HG3JKag0PLysH1Xszs7jOzM7Ozm539l+8HQjfZ2fmzyXz9zTPr81t3//79+8jBv5ZXsOGPD+XyUiJaY/5Q7B0gosrHoCEi2zFoiMh2DBoish2Dhohsx6AhItsxaIjIdgwaIrIdg0ZH+HmHpZ9ZfW0ur8t1Pblsa7Wvt3NfqTI8UOwdAADM+hD+2Im9kgebDBa5+4UH137uRbu3OePqcvnDb78Qz/o1etsV12O0H9luS7teo2Wsbqv9Qtxwndr15ON9ISqBoIlh+uMZbDneZxgyQATfX2jE9guZQwawfnJYOYGt0ltXvtatDQa9ULESGtqfiY/F15ttx+g48/leUuUpftDMDuOOsxftximDu1+cxb3nh7DN5l3RnoSJE0jveW3lIp6cdlQsIqNtWVkPw4CKochjNEo102ZWqcjVTN1fqrJee/h5h+6XkfYL8eSJKP6r91j7Ojsl9jkfYyGrHX8yOlZtKBOJilvRFKCa0Z4Ydg+yml126O2XUcUkfm90WZRLwOldhllZv9VqiZdQpKeIQZMamzGmVDMXsq9m8sXqiZNpEFVvPdrLs2xPbL1LObOwMgo1s0DT208jiYqPYUNaxQuaEhqb0ZM4WaycYFZPRK1cT0ZtMFgJimy3JwaG9nLSKDTF1xKJijRGY+/YTK7EMRy9uzBG7DixzIKLJzKVm+JUNAWsZrKpMqyOr5Qiq6HE8KJiKELQFHZsJp8fxCv02IPVgdvEstmsV5RNsHL8hXJR+EsnpZrZmbGaObLqaqZQt53tZHYJlel2fa4S67UyoE1kRYErmvK40yQSTy7x30JeXhltL9dLPau33rWvYchQrgobNCVyp8msQtB+v9oPqOUrkLTbszJYbXS3KdtLJ7P3IZc7WrT2rGO7FSKyG6eJICLbMWiIyHYMGiKyHYOGiGzHoCEi2zFoiMh2DBoish2Dhohsx6AhItuVXtAsBuBxeBBYLPaOFNMKRl9zweU6h1kAwCzOuVxwvTaKlSLvGVEuSi9o1rrlUZxwHcTXT1/B5ORxNAAAGnB8chIf1p/BQdcJjC4XeR+JsrR2g2YxAI/DAd+U+MMYAp3FrKZmcc59Bui/gncObEx7tqF7Elf6gTPuRKVDVB7WbtAopKEAYsXeCcXKVT8u7T6Ffp2QSdh4oB+ndl+C/yovoqh8FD5olErCIXx5Luud6jEEOo2XiV32qNbhGIyoXqeuVMR1ChVLhxvuoBc9uttP3weHwwFHpxBMUz44OgOIKPvim0rtl/n+6lVNK7j21XXseXovjGMGADZi79N7cP2raxyvobJR4KCJwFfvReNEHPF46itwSDvJVQje+lpEe5RlJiSEunqSJ2fssge1XYB/LrGOcUinW5SwqULdE8DMfCy5rMPhgxxDUUSDjairSWzHjaEJCaGuYUSgr65nIbWvc364g14MiyEW9OIshhCfkCDtd6BHeRwKjyUDSd7fRowr61kYAbz1Ps02f0b0BuB8zDxmAGDjY07gRhQ/Z1ySqDQUOGiccHYA0n7tSZZOmoijr0n5psYJd/KZGMbCIWCgF55kYDTjyIgbOD2GCABnvRuhuaiybCOkAQljUwAW5zHT4YRT3FDTEfg7JLQM6u1RFZqbhBCsqUMjUiEGAOjwYygRlOLjpAiGu0KQJvqQ6PlQ9aQbbij7lLAcRTTDe0JUrgocNFXwXIwjHm/FmN6lSJIbzhqdlwOQqxLAXa+KC1TVNQKYwfyi8vjWPGKLYwjBiSPPSHI4LEaB9laoo6AKnrf8cJ8+qz8IPOUTLnlaIGV7yIvzmAEg7Rcuv+q9CGmX26wJQKIKUqTB4Gb0xeOIxxfghxe1umFjRK6K5IolJTY/A0C5LGpqhRQMYexbJVhqnEB4DJH5GTTW6cxFXOPB0AjgPTmsriqmfHDsn1FfomV7qEoVJGkuF+NxoWIDADwK524g+lPmkZeVn6LAbicezXZfiIqksEGzGEFEr2p4og7WpyKvQmu7G1BVIPLlCQZalcsTJ5wdIXi7ZuB+sgqoaYUbXrR0wbBSqjrUCykoQQqmfqYKLyBZnWSnGa0DVi4XrQ7yWh00JiodBa5o5nG2XryLUwsv/FjoN+tYma7qUEAZUBUuaQbGEU+uRx4QRocbrTXC92JopGlG34S6Xqk6NCSP3yT29yTQO+JGqKtWuMuVWXN/HAsjM6n1KF/aO2MbD3hx+MYZDJrcul65OogzNw7Da3ILnKjUcHLyUrM8ihMGH9qbPe/CCxf34FToHbRtLtL+EeVgzX9gr+RsbsM7k1fw1FcH0/5fpxfwISYnGTJUfljREJHtWNEQke0YNERkOwYNEdmOQUNEtmPQEJHtGDREZDsGDRHZjkFDRLZj0BCR7Rg0ZlRz0TiEmfrKdDtptG1dKs/seRdc7BxRdAwaM019ybljFkbcmZcv9e2IdNu6VJ6G7klMfuDEGbcLJzihe9EwaNYk87YuFWfHcUyGTgGDB3HuZrF3Zm1i0KxBVtq6VJzNbejv34NLI+z2WQzFCZq0MQntJFAR+FTPq9uTRAaV9iqq9WjGNSy1dTHfTq7Ho9/qZbXSW7+kb0fboiYAX9pyZjP0ReBzeBCYUt67wUjqfewMIKa8X7rtcaZ8yfcvdtkjL6/6HWjfW+1771BNJha77IFjMCL/rpXXyo/1mv4ZtMPR2Nj0FPbc+BrXOF5TcAUPmthlDxz7pbQ5dFPz50bgS8yYp2pPovlDPd0Cx5ATC4m5h1WdDKy0dbG4nUy08wpPSJD257vbZQyBTmU2wri4HfGkS1+md86rM8dxprYuIXiHgKFEC5uTyuNgCGOL8iyE6e1pYggMSXCPDKU6UwS9qK2PolfZl/GBELwn1SHQKv5+JiTN9KwATrdg7Jl4cjZF+bEb0pdiD69aeJ9I/A6VOaiNZj/c7IQT1xFdMn2zyQYFDppEq5RxzcTcgqkxSHDD35Wa3rPqUC8khBD6Vt3mZOGiR5lrODFVZ4KFti5Wt5PheNJOsKbWLNdhweIYQkFA6vGk5lZuOgJ/B1Innc4yzV1+pA0tZ2zr4ob/rcQ6xMfidiWcFauaqWF4gxJ6VUEuYTyeajHjrNfuSTOaxb+BGifcCCEqBo34d6L3N6Nsd1yYwlWeT3qsQHftyKoCB41+qxRR2oTgAHQ7H5hOaJ65rYvl7Vg4nlBX7epasmSyGEUorQWNEq635uXj0l1Gx6rbulTB0yNWNYmwPQLVzM/a/lk6VN079VrQZHr9/AwASTUXc21XtmuhQihKAzmzE1nsz5SSOaD0Gbd1yc925ONxjyyktVJJ7765Cnr/tUcM87eQClxVkz0z1tu6GBKrmsUxhNKqmcy03TvjczrVVwby71BKrSP51Qfd6e6Xo4hiD5zVWW6IVq3gDeTk0rbFeMBUufTwjogDg2chwS23TrHCSluXfGxHOR6xXa+h5VGccLngei2Hux41rXB3ANKQ2Pd7GN4gID2jnFI1dWhUHU8MgZN6VUI+enenqhrfiBfQVjMWROdC6qpnMZp1RSP/Do26jKZbmfoa13c/hb2cc7ngCj4YXHUokBzI1L8j1Iy+xEBkshwG/HMBoQVuJlbauuRjO4njaRRavxjd4VqNKnguKlVZYhvKgHpq3KIZfXN+uJPH0wP06FcJVtq6ZKRUNdLp7KsZAGjuH4cUFI7ny1aMD8gdPa2/d83oiy/Af6tFffdK75PVy6MYHLyOw11t7IdVBJycvJItBuCpD8GtF54mbV2ske/4hNoX8nuZaIeb5+B66RL2rJUPKJYgfmCvgkVGvAglm+hp6LZ1sS52uUfnTlPpmT3vgusl4MPJSYZMEbGiqSCRQQdaTgs/UH0EIB+Uz60EAe3tayIzDBoish0vnYjIdgwaIrIdg4aIbMegISLbMWiIyHYMGiKyHYOGiGzHoCEi2zFoys30ewhXV+PzTzXzUS59gs+rj2K63GaPMzoeqigMmjL1YG1lzXVQacdDagyaclO9FeuLvQ/5VGnHQ7oYNOWmuhYP4gAeqpRZ4irteEhXYYNmygdHZwARZa5Y31Rq3lh5siNr7TwstVvJ0NLFjnYehbEL+5Y+wk7DE3MZ08eqEa6uNhj7UD8fPvYJ7mqWuPvp0dTz1dUIv/td6snkWJB6Pd9Mm2zDYDvWjocqQeErmqAXZzGUnGWvR3kcCo8hhizaeZi2WwGAVtVcsuMDmqkwlXXktZ2Hjl/C3fA//rj+19/+kcMbaOYq7uzcgd9eXEL70hLar76B37tPCQPEy5g+tgN3to/Kzy/dxBa8jGtCkNz99CiudQNbppV1LI1iw9tt6rDRbGf76+l78vCLN5XXL6F9+n2sv/Iyvp9OX47WhsIHTYcfQ4nJksTHCVbbeZi2WwHQ1KyaK8VZ7waCmlYjBWjn8Uj7eXh/+EH/669/trgW6zZcXcK+nco32vGP6Yu4c+UNbH91l/KDzdj67AHg7W/wTwDAMn787Crw+ktChbELfzovLpO+nW2vCttU1rttpzC4W12LBwHcW+CdpbXqgWLvQDp54mvv/mFEDvWhOVnNLKgnWTJttwKoJ2lKaMxqT+R2HiG0OLQNVLJbT+GYj3XcXZgFcBW3q9/EbdUzDcq/P+K3K8D6Z7eqnt1U2wBgFr8mKyMLYyrT7yF84E3Vjzjou3aVYNBAqWpqcfbyEQSeVNp5XMxmnjjhkueiHE9ye4/sdkNu59G4qpnkfgl348orf9d/sjdoS1VjRA6MBmxfegXbdJfYiocOAv+e/xFAqiKRA6oBD1cDsPI5nen3ED4wiy3TS0pl9B2+qW7DvVUfAZWr0gwaoarxDUiAtprJSOnP1J7qzxSdCyHrSqSpFRJa0DLYinh/blHzSPt5eNtzemn+7dyHDWjD7Xf3YVvy8kkkX0rd6f4A04c/SobE993y5ZR+OKVTBRMALC0wZNa4Eg0aJKsa72kJ4/FsZ72VB5Ud+2vhUKoYaUJurdLimIF/LoBWq+uJL8DZWQuHQ/x5uc6Xuwv7lm5i+tgOhFWXPm8kq5xNz32EvTiKazurcSfx9OujaNcNJn2bnjuDLZ/tSF2iHXwf288fwO3uHQjPZ7cuqgwlPGdwGbXzICJTJVvRJNp5jGc1NkNEpajEPhmc+nCc3Je5HC9PiEirhC+diKhSlFhFQ0SViEFDRLZj0BCR7Rg0RGQ7Bg0R2Y5BQ0S2Y9AQke0YNERku5yD5g/r1iHHz/oR0RqTc9A4HOsR//2/DBsiyijn/wUBAP7z6z3E47/jfwwbIjKxqqAhIrKCg8FEZDsGDRHZjkFDRLZj0BCR7f4POeZk13Yq5rMAAAAASUVORK5CYII=;" parent="1" vertex="1">
          <mxGeometry x="224.91" y="1120" width="205.09" height="80" as="geometry" />
        </mxCell>
        <mxCell id="ACEPfVbA1j1k4u8m79z--66" value="" style="verticalLabelPosition=bottom;verticalAlign=top;html=1;shape=mxgraph.basic.rect;fillColor2=none;strokeWidth=1;size=20;indent=5;fillColor=#f5f5f5;strokeColor=#666666;fontColor=#333333;" parent="1" vertex="1">
          <mxGeometry x="209" y="1615" width="290" height="85" as="geometry" />
        </mxCell>
        <mxCell id="ACEPfVbA1j1k4u8m79z--68" value="全局执行上下文" style="text;html=1;strokeColor=none;fillColor=none;align=center;verticalAlign=middle;whiteSpace=wrap;rounded=0;" parent="1" vertex="1">
          <mxGeometry x="304" y="1610" width="90" height="30" as="geometry" />
        </mxCell>
        <mxCell id="ACEPfVbA1j1k4u8m79z--69" value="变量环境&lt;br&gt;Variable Environment" style="rounded=0;whiteSpace=wrap;html=1;strokeColor=#6c8ebf;fillColor=#dae8fc;" parent="1" vertex="1">
          <mxGeometry x="219" y="1640" width="130" height="50" as="geometry" />
        </mxCell>
        <mxCell id="ACEPfVbA1j1k4u8m79z--70" value="词法环境&lt;br&gt;Lexical Environment" style="rounded=0;whiteSpace=wrap;html=1;strokeColor=default;fillColor=none;" parent="1" vertex="1">
          <mxGeometry x="359" y="1640" width="130" height="50" as="geometry" />
        </mxCell>
        <mxCell id="ACEPfVbA1j1k4u8m79z--72" value="" style="shape=image;verticalLabelPosition=bottom;labelBackgroundColor=default;verticalAlign=top;aspect=fixed;imageAspect=0;image=data:image/png,iVBORw0KGgoAAAANSUhEUgAAANIAAACWCAYAAACrUNY4AAAPhElEQVR4nO3df2zT54HH8TfTnWbpENuFGkhTLgkZEkootOhEoK6cEq033QgovZyUpPzhhJ26gtI17aDtoisJbJex0WvTzqJrtYP4JEj8h9sIkq1dp4CjBRp0Y4NCFKkLhGNpCIZIjaLK1Wnl/vCP2ME4jvPEjsPnJVmyv7+ex8ifPD/89cOiO3fu3EFEZuVr6a6AyEKgIIkYoCCJGKAgiRigIIkYoCCJGKAgiRigIIkYoCCJGKAgiRigIIkY8DfJnjg+8QV+/5d8pVv1RFiUzE2r4xNf8NVf/4rl63/LokWL5qJeIhklqa6d3/+lQiQSIakgfXXnjkIkEkGTDSIGKEgiBihIIgYoSCIGKEgiBihIIgYoSCIGKEgiBihIIgYoSEZ9yqFsF4fOJ3f2rfc9FGa7Jh+vfxrz+oXP9HFr1nVNzIXXY9VDpkr67m8xbKSPf98NPz7voCI73ZWRmVKQ5olbH/+Fnm0P8ZO4IVrN3pHV7E1VpSRh6tqJGJDaIJ07iMViiXocPJfSGgSM9PFstgfPyOSmW+97osYe4dcjfTwbHrdEnwPBMURw/7Pvj8UsLnrsE6PcbBf23RNwcgB7xBgpNNaaduwUfj+38TwTWZ/bU2oSvT/mWOv8h1H7/5zAP6ekvGu3Ba//FYqDr/qaLZS82U7tsSqWJ3S+j4/rihn4dey92e9d4TuPmKkpEPhgn1xB24iDXxIITXVjHyXvFvNA6PWhFbSNfIf1BD7wdqA24hK33vdg372YtpGKyWM2fMi3guc88FQF/U8Ft//mIXqC144UOiYQhE5ejVnZCV7d0Eltl4P+dwkEYutpPJsqgmOu4LlrHqP/3dXh1/bXs+h/cXXgEuc/pHDrDWq7HOzdQCCgG0B9yemlNkgbi8MhAsgrKIcDQwwdI8EgWdnkvMKmualdDJMhAcjJXwwDoX2f8ttDYD/8j+H9Dzy1jtrdZyLO/5Sjuyeo7aqYPGbTQ9gZ4LfnYf0Gs7UNBwAg+5vYmZjcef5/ePXkCtreDYaGpZT882LYfYULL65mPXDh9A3Ytoba8DWK2bV3gB6z1VyQUtwijdK+I5caT+Q2k02IYdu+Sc699o2MMQgU5C699/nBY3q2ujg6ZVeBkQpGWsyqOBMVt65NABNUZ7vuOi/gNn8eANZk3dUiyvRSGKRgiIq8+I8F2qVRdxW5jplcY+66dsNXJ6Y/KKqwrOnDEDymILKlSJMHchcDi6Na2GhL+daa1NZpIUnhZMMQQx4oL8ib3DLYMcNrBLp2NVdiP2YWogmuBAf9t973UH1ohlUhi1Xb4OgvQwP223ieOTOl5VnNP+2Fo1s/5MJML2/ahlXUcoPqOF+u5uQvhkMXw5Mhyf273J9S2CIV80pPExZ7LpZgK9TU46XpQAkllj/ROthO1T37UYZlF/OTw3/BHuxy2Q+X0XP4NPbfzOQiS6l49zGuZJ/Bnj0ALObH5x+j9uSZqKPWv+igJ9+DfUqXqjblrdRq9o5kseqZTgqzI+s4OQ584KkK2q66qN7g4lUC/y5tezupTmU1M1RSy3Hd8I3x90v+bi7qI5KR9IWsiAEKkogBCpKIAQqSiAEKkogBCpKIAQqSiAEKkogBCpKIAQqSiAEKkogB8z9Iw+1UWapoH773IX3NFizNfamr010u47a00Bh+HMEbp77pdRPvjhYaLR76U1LeGJ0/tGGzObkU3HLpsA2bbQ+dPkNFXHRis9mw2Wzs6Yr9c/+5plWEDOhv/oj+fU+yv6Eo3VWZX3yd7Cn/KTScpPc/s8Kb1+7upfdxJ7ZyG6cbTvLa1qw4F5nOJZy72qh+u5e6dbOvcrLmf4s0713mkwNQ+O00h2j4FM6EWsJllByrZ7+/gsI5rdAlnMEQxQzKujp6O34EzdtwXpxFMb4hhthMXprXAlSQZE6MdbXStulHNMRrbaxlNDRsps3VSdIdMmseeZxlaGT6Q+dSart25w5isTdFbWrq8fPKxsgt0es6NLla41+nopXWtDQGl3FbPpocZ9hbaAw9r1hP3bEtWIdP4Sy4ysODOykJ/mjR5z6C80R+YH/k65+Du+ACgWHDEkojzgHgnIdG+/WoGhT21FO5Mboe3QUtdAefW11PU1e5LPb5oTpOeVc+9xGcjvHJDZFd1vD7KYOXjtPtiVEOAGOc6T7L5tIGpuu0ZW18gs3NpznjK6NsamUS8iB5m+D09TFYN5su4uzMs+W4giGilWv+wLa+ZgtNlFMeukQwROEADrdTVQDsS7wWt0/s5mT9B7F3vuCh5rlHE7hKEZX+IkKBoqeeyo3TnhSb5wJOz0oq/fUUAv3NLbhfOkVhZNgc48Hg3KMeMUIbZWMF+/2Bp/3NLbgv331IoBwoHawPXiPw3hohYvw3TnfBcQp76tl/jGBAO/E+HlnuZwx9DHmOBD7YkS1KUkGaQVlzaH4txzV8ig4PNPVMrnNX7Gil/MDk2g59v2uCilZqQx+onCpe2FfDTFZ/WLr9MDXbZ/VODFtJZcSYxVqwBMIf9Jv0nxiHfU8mH9SETJYzGYgiSl199DsG6G8oCtcvKtA5WVj5PPpSviGGgDzm0iWctu/TRjXv9Paydk7Lml6Kx0ijtO+YXGU11zHl4z88RAfl5N1z7YZRrl4GivITXAcvQ1Rkxflj7OOGB6wFSf25noHY5VjzvwF8ji88ibGEFdOtrWHNm+MQAaylrreX3t4nOG1yKj1JKQxSxHJcfj9+v59rrvLoQ3LyKI99ctBy8g2Mh26f2E3rqlWxH7/44+wLiMM3OD79QVGsrKgA3+Bcf1Jil+O7+jnwDawzWpgmMG4Zup7AFMKsZ90eJG/TWU6fS8/3RyHzazmunHweoYMaV+jL1T4OFkR32wLdwTfCX9COuqsoOTCzmizdfvieS3olNj6aiXFuBOvqcx/BPcO6wjIKty+BAx/hjrdOes4yrBFlzVyonL6IKfTLdDvGYd+aGU6VZ/FY6WbOdp+ZdjZu7Nxpzm56gseSbnCDY6SV6R0jpTBIgeW4Ohy54a7dqW97aaKJkvCdC8W8MthK+YGS4DGn2DLYGtVKLa9sx7uvg5qCwDWe5028M5hoSKmcLVS6ltBvD9zx4KaMOteSGV/GWrmT/T0rw9cJPZzumxFHFVEaUVajpYXG5hgzCtOUU+cKzPwFrpH8F81ZW2uo/vinNMe708DXSXPzWaodZdPO7t37GvPjeyQtxyVzJ+LOhru+lL3oxLarjc0m7mywfR90Z4MsWNYyXus9yRPd2+6+124XvNPbO8sQAayl7u1q2nal9147tUgiBqhFEjFAQRIxQEESMUBBEjFAQRIxQEESMUBBEjFAQRIxQEESMSDjgjTqrsKyo53RdFdEJELGBWm+8n2wh+yjsZfD+cPRMrJ/EHzc4xjJbFrXblYu0vKDBn4Wehnjp0y+D/ZQ9tkuLr61FSujvPcf3yP7aDMjtWm8VVmMU4s0G6PL2fFWJyNvddIZ8/eAFzn26wFeLtsa/Cn5cv7l33ax9Y//zXvqmy4omRuk4Xaqgj8QTNuYafny+AvfXOjlZ6zhH1ZEnrOStQzwvzfmuG6SUpnZtfPUkEsr1/x+2oNrQeQ25+NvKJ7+XEwtx5WoAnJjrNRyaWQU1i+oJVzua5kZpIpWroXXwlvOlu3l4DhFX0P0cl/3Mv+W45JMl7ldu4wxyLUY/c612WqNFpLMbJFiqUh8LbWUde3W23iZrsB4KJSb0etcYg3fXRHvRMk0mRkkTw1Hn68KL1n8vKODctebCS8ambqu3Tp2fHcN6zq72LE+OP39q7fperSZX6lBWlAybs2GUXcVuYMv4KUkvJ5duesa7ZVp+GReeJvs/+qKuevl73VSvz7w/A9HyygLrTv5qL5DWogyLkgi85EmG0QMUJBEDFCQRAxQkEQMUJBEDFCQRAxQkEQMUJBEDFCQRAxQkEQMUJBEDFCQZAb6OGixcDDefwp9n1KQRAy4f4M0fAqn5Qje4XRXRBaC+zdIIgZl3C9kfe4jOE/kU/dzcBdcwAfASir9FRRGHnjOQ6P9evhlYU89lRsBLuO2fER/cHt3QQvdwedW19PUVS6LLufYluCSWzfx7jjOJ9tDxwSuQ089D/+uBfeBu6/B8CmcBVd5eLAMXjpOtyfGMQnp46ClhKbITfu8Ca+aFOn2id2cYj//uj3uQmLT16jZEv5hZVOPP/Br5ftYxgUJAM8FnJ6VVPrrKeQybstA9P5zHhrtn1M6WE9JTuj1EbyDOynJKaLSXxTxId8ZOCZJ/fYWfK6n2e9fhs99BPddR4zTXXCcwp569h8L1aUT7+MzK3dL5If13EEs9jdod7RTNYu6J6vJboEeP/6GUF2qyBtMT13miwzt2kW2QEVTWqObeN+8jtVVNvlB3biGQsb55Pc3jdcksnWxVu6M2dJMtoZATlb8RSVjKqY48i9+Th7ldDCUpvFdVAu0cQtNdNDx+/t76djMbJEq4n0YfdzwgM9znEZH9J7ZdWZis+ZP10VbwgoDf6lH3VXkOjqitj2S4Lmf/mIVvW9EbvmA1vrgU+MLYt6fMjNIcVlZUQG+7TMdh0wnEFDSsLBkIESP4PW3BxbAHG6nqqAm4fNXP3eF1c8FnpsaI031SP79vSxShnbt4llG4fYl+Byd8ae2c5ZhZZwb8Y7xjAUnM27i3TE5QZFqQ4Md0ev2DQ/REe+EOdb05uRa633NJTTRxBZNNiw81sqd7M/30BgxIwdTZ8uKKHX14bS30Bg6YN+T7G8oCl6jjNITx3FbWoAllA4+TSnH+SR1byOsuMFLk6WEXE+wFdrnxbuviRK7hT+lfCmyclqfh+ctlmCYm/D6X0loqeiFTMtxiRiwALt2IqmnIIkYoCCJGKAgiRigIIkYoCCJGKAgiRigIIkYoCCJGKAgiRigIIkYkNIgjXXtwWazYbPZcF5MZckicys9N61edGLbBe/01rE2+auIzBvp6dpl57E5LQWLzI30BGlkiLOb8ngwLYWLmJeWII1dH0pHsSJzJi1BylqZBx8P8Vk6CheZA+np2q2ro7cjj1abDdsPOxlLSyVEzEnPmg3hWbteXktLBUTMSt8YSZMNsoCkb4wksoCk73skTTbIApK+75HSUrDI3EjpZMNY1x62NQciVP12r24PkgVDC0SKGKCfUYgYoCCJGKAgiRigIIkYoCCJGKAgiRigIIkYoCCJGKAgiRiQVJC+tmgRSdwQIbJgJRUki+Xr+L/8P4VJJCipe+0Axie+wO//kq8UJpHkgyQikzTZIGKAgiRigIIkYoCCJGKAgiRigIIkYsD/A+roj73Rpt4/AAAAAElFTkSuQmCC;" parent="1" vertex="1">
          <mxGeometry x="200" y="1730" width="168" height="120" as="geometry" />
        </mxCell>
        <mxCell id="ACEPfVbA1j1k4u8m79z--73" value="" style="endArrow=classic;html=1;rounded=0;exitX=0.5;exitY=0;exitDx=0;exitDy=0;entryX=0.5;entryY=1;entryDx=0;entryDy=0;" parent="1" source="ACEPfVbA1j1k4u8m79z--72" target="ACEPfVbA1j1k4u8m79z--69" edge="1">
          <mxGeometry width="50" height="50" relative="1" as="geometry">
            <mxPoint x="349" y="1710" as="sourcePoint" />
            <mxPoint x="399" y="1660" as="targetPoint" />
          </mxGeometry>
        </mxCell>
        <mxCell id="ACEPfVbA1j1k4u8m79z--74" value="" style="verticalLabelPosition=bottom;verticalAlign=top;html=1;shape=mxgraph.basic.rect;fillColor2=none;strokeWidth=1;size=20;indent=5;fillColor=#f5f5f5;strokeColor=#666666;fontColor=#333333;" parent="1" vertex="1">
          <mxGeometry x="560" y="1405" width="290" height="85" as="geometry" />
        </mxCell>
        <mxCell id="ACEPfVbA1j1k4u8m79z--89" value="" style="edgeStyle=orthogonalEdgeStyle;rounded=0;orthogonalLoop=1;jettySize=auto;html=1;entryX=0;entryY=0.5;entryDx=0;entryDy=0;" parent="1" source="ACEPfVbA1j1k4u8m79z--75" target="ACEPfVbA1j1k4u8m79z--88" edge="1">
          <mxGeometry relative="1" as="geometry">
            <mxPoint x="910" y="1485" as="targetPoint" />
          </mxGeometry>
        </mxCell>
        <mxCell id="ACEPfVbA1j1k4u8m79z--75" value="" style="rounded=0;whiteSpace=wrap;html=1;strokeColor=default;fillColor=none;" parent="1" vertex="1">
          <mxGeometry x="550" y="1400" width="310" height="170" as="geometry" />
        </mxCell>
        <mxCell id="ACEPfVbA1j1k4u8m79z--76" value="执行上下文" style="text;html=1;strokeColor=none;fillColor=none;align=center;verticalAlign=middle;whiteSpace=wrap;rounded=0;" parent="1" vertex="1">
          <mxGeometry x="655" y="1400" width="90" height="30" as="geometry" />
        </mxCell>
        <mxCell id="ACEPfVbA1j1k4u8m79z--77" value="变量环境&lt;br&gt;Variable Environment" style="rounded=0;whiteSpace=wrap;html=1;strokeColor=#6c8ebf;fillColor=#dae8fc;" parent="1" vertex="1">
          <mxGeometry x="570" y="1430" width="130" height="50" as="geometry" />
        </mxCell>
        <mxCell id="ACEPfVbA1j1k4u8m79z--78" value="词法环境&lt;br&gt;Lexical Environment" style="rounded=0;whiteSpace=wrap;html=1;strokeColor=default;fillColor=none;" parent="1" vertex="1">
          <mxGeometry x="710" y="1430" width="130" height="50" as="geometry" />
        </mxCell>
        <mxCell id="ACEPfVbA1j1k4u8m79z--79" value="可执行代码" style="rounded=0;whiteSpace=wrap;html=1;strokeColor=#6c8ebf;fillColor=#dae8fc;" parent="1" vertex="1">
          <mxGeometry x="560" y="1500" width="290" height="60" as="geometry" />
        </mxCell>
        <mxCell id="ACEPfVbA1j1k4u8m79z--80" value="" style="shape=image;verticalLabelPosition=bottom;labelBackgroundColor=default;verticalAlign=top;aspect=fixed;imageAspect=0;image=data:image/png,iVBORw0KGgoAAAANSUhEUgAAAPQAAAB8CAYAAABezJ1LAAAMvklEQVR4nO3df2zT953H8Sc/ulialKnonJRGGeaiSSihwG5SKOcuKVHRppFGaNkpQDSF0ZMqtrRkKltpJhEHqSGdONW9y1Yh3XFEUwDrzijKhaoTXagzLJpI1xuQRGhTWjOUhsR3kY6/zI7i+8NfO7Zjkthx4vDx6yFFcr7++vt9g3j58/1+vl/e3zXhcDjME+ZecIanC7+a6zJEVp21uS5ARLJHgRYxiAItYhAFWsQgCrSIQRRoEYMo0CIGUaBFDKJAixhEgRYxiAItYhAFWsQgCrSIQRRoEYMo0CIGUaBFDKJAixhEgRYxiAItYhAFWsQgCrSIQRRoEYMo0CIGydNAj+KxuWmL/ZzFN5Hrmh5nGl+jmzabl7Fcl5KOiafYbyvg4jx/r1OeAmyNTzH12DVG6HI6cb7RzwxAsJ9jTifOX49krcyZy8dwOp04nU66bmZtszmzPtcF5MJYxxXGTuyhvbUi16XI49zswnnkAgfe9+PfZi2z13La/7f0v/EyTucBzvib2bqUfQT76eiAt3r91NqzUPMqkIcj9Ci3TkL5SzkO88RVuhZ1ZFBEdU8L7aF6yleirtUg2M8xK8zN25Lf3EDtP/g503iBV6Mjd6YmA1zHgcOQMENeBlpWu5F/O8X1xjMpwjxr64/PcOCTU5xfymHyRge7CBAILmEbq0weHXKP4rFdmT0PrXLTFn1dv53mnt3YJ67SVfY5z40fprok8lbQc5auvs2R94GxDjce9tD+0m3aqu5aGyilIXkEHfbGvR9RPthCQ2ViHQNlbgas1/bugzQ3FKX+fLTGhC1O42s8z4A3eR/WL7E/Ty38fHa9hP0sxvBXsFWtSVjkGnzA8cr4Jeu42LieQ9Y+XN2P5m5n4in2l62lF4Aw57pT7WyEj3vgwPsLHUxv5cVGePXaCM3bMjzwtjtwcJ3AJGDIKJ1Hga6gIVRBNNjE/8NP18krtI1upzlUj90KladjNHZOHvScpavpfmK4kutI8eWRoLKe9lDk5ViHG89o8gpWmNlOc8gK+rCXtio3noT93meg7Dzlgy2090TX6cf3wmP2m9IjfKGH7LR+G+oooPq9p/hRz/9RDMTCzCPuhCLLhjoKcAH7opuwwkz3Q0INXwLr6bStg/qkXQUDBNjFixsXrurZTbtgIMAMW9mw2D9Khvt6UuiQOxMJo2UR9oTT8WnG+u7DiT2Zf2EsxsQot7xQfjRu1K78NjX1MPZRYvoTvlhKNqQ/GFXOhhnAUQZ41xCI1bKWXi+4jkYDDjubHs2GGZi6tpZewvy04UtryUN+lGqEngxwPd360hWdLe+EVv9pYybEQIHOTEXRPKEIcs8L9rJl/lcyMUOQQp5JGGWtL5fRaWZPC5PXycQ6LjYWYLNFfjY1Jdeyhl7AMc9+AuNAfRjHQrva6GDXkmpdBHstp/1+/Mehw9lF9i6C5Z4CvYDg+P00P2HnmXoIji/zTEvJBuzc517CLPk0wVEW+MJJl3U4XfElodADQqEH3EkeWUvCCaNxKo6yRe4u/rx2AV/cuQ5ljswOt2P7usDHBlx/jlKg55gNSdBzFs/JdD9fRHldIZy8gmd4ntVKilIEMg0lFTxXD2PvXZ0djYd/z4A325fk1hDwwr6ycGxJYDy5ljA7gEPd0SmZ9XTGJr8iijeHwbuWf43+nQx/Ze5ID0Qnuy5cW2jctCbPXljClWjrHNqhc2hDleymobuQsarIHWQeamnuLkx7M/aGw7QPlsa2E/3p8kzHrVVBTdy+2mxu2jrmzHzNo4jqnoPUcIOu6Oer7j5mIm4pHnJ8MExv0/rYIffVl77ExRqqY3eCPeT4+CP2nVxnrbOW3eOJ59BU/oU73eCqsg7dP3o0d6S3bP27t9jV8+q8d26N/PpVLjz/FgfnubS1IAOvQ68Jh8PhhVdbXe4FZ3i68Ku5LkOWU9ydYonXo2fof+NlTn2SnTvFju37mBd7zZkY0wgtq9O2Zvz+M3Ak+V7ul/m45j/wLzXMAPZaWlvh1D5z7uXWCC1iEI3QIgZRoEUMokCLGESBFjGIAi1iEAVaxCAKtIhBFGgRgyjQIgZRoJ9Y6+m0FdA53//okryjQEuW3cT9+jEupWy2fRP367VstH7cN1a6NvPlUU8xWU7BD4+x7YPb1m9b+NWcNaa49HYrI9/7Fya/WwxTl/n7t2txv9JPy/aVrdVkGqElO775Myb/sZ/JXxxhb6r3b1ziJ1N7OfJdq+tY8V5OfW8L7/RfxqAuujmnQKcl8liauZ1IIo/WiS0f9iY0NmizJX0m1mQ/+pibFOukYahjtt9Xrs6p7cXF877/n59ehuKv8/X4z2wsg6k/8+flLS2v6JA7LUVUHy2l7b2rBON7ZA/fZqx+O82xTiFbEvp0j3W48SR/Jqm97liHm1sZVOSqKoDBB4RasfpnF+AYf8D+RTUGDPJJ805uf5D63Y2XPuM7OzIo6nGeLU3R62ycO1Pwrfm/D2SRFOh0VW6h3DvE2C93W32tp/G9d5fyo/Vx7XQrEpru28sK4eQMwZ7Efu7x7YLKW1syetRNQsP7yke4WEfvtXXsj7XLnY+d57s+4/kM9iurkwKdtgpquofo6h6lurXC6o9dSk1P/Dpzn2gBX0vaTjba6z5hvrhLkG1Jo3QZmzQ6Z40CnQH7C5uxNw3ha6qg/Nrn0F0bN7paYa7YQ3tP/JM0Vq6+HZsXMzrDSh5yf+tv9sJ/Rc6Xo4EOTo5D8e6E82pZGgU6EyW7qTlxg4FrV7nX9DVqQvHPibIa7dfNjkOR3t7JI3R2uOIeSTPUsQ4XYXyL7vq5gofc27/Pr4pf4f0Pv88/W5et3vrgNm++ctqUx0qtCuoplqmJq3SV3SCY6jnTSQ+aKx/cA1VXGKOQmvHDVLPAc60WJfJsKMfgI3qrZh8A5wv9JeGxNStjiktvv8JPUt1MUnyEm7/Ya4X2Ju7XW3nHeutNXYPOOgVaxCC6Di1iEAVaxCAKtIhBFGgRgyjQIgZRoEUMokCLGESBFjGIAi1iEAVaxCAKtIhBFGh5gvyRzh/20TmS6zpWLwVaxCAKdK7EGgXmuhAxiQItYhB1LElT0HOWrr7NNP8SPGU3rJ7SpQldPoEUTQ6iDQFH8diuMGYtHyhzM2C9tncfpLmhKHE/sU6hkdZGt+qi60S2w2ALz33kxnNy7jYiTRg+57nxWvj5bI+zhHUWZYhOWzWu+EUnfIRa02+l8D99P+Yq7fygbml9SobO9VH9u8hr15t1HN+6pM0ZQ4HOhPcGXd5SGkItlDOKx3Y78f1hL21V/0vNeEukI8mwl7aqs/jGD1NdUkFDqCIubEvpWgJjVW6C3QdpDxUR9JzFM2eNxHbBkVr68b2Q3n53D4Zmu4sOd2KrepeLTRcX2S44u1zv9MGbdYQOASO/x/bOb3G8+x32/9XK17La6JA7I/EjckXS6Bxp62vvrp0NTOUWyrnPrWvTWa8kfrS1NxxOOfLGtwumZEMGPbx2sjO+T1mJg330EsjR+X/CiLy1GBcP6P30v3NTzCqjEToT9fOFItIkMOg9T1tSp8/laIZn37zQoXN22gVPefazqak3YdliG4L+6Z/+Gv+78Us+5FyL9fKnXg699s2lFyiAAr0M7DxTD8G6dM9TFxL5oqAui5tcpEiYd+ALXYw0IJy4yP6yQ4v+/Dde+4xvvBZ5na1z6GQ7ntXxNuiQexkUUV5XSLCpf/5LUiVF2LnPvfnW8c5Yk27T+BpnJ9JWWmC8F+odOKILJgL0zveBZeb690+JNhgdOncbF0+zW5NigEboZWFvOEz7Zi9tcTPYkDy7bD2Bo8pNW3SFuJbA9oZaavrO47G5gUJqxg9Sw/mMnn+1VDtbfbhs1WzyWqPyCR++Ey6qq2z8ofsOFxtW8tEXBZz7ARz9YZ/1pfI0vt98Oweti1cntfEVMYgOuUUMokCLGESBFjGIAi1iEAVaxCAKtIhBFGgRgyjQIgZRoEUMokCLGESBFjFIXgV65vIxnE4nTqeTrpu5rkYk+/LzP2fc7MJ5BM74m9H/uhOT5NUIHbPRwa5c1yCyDPIz0JMBrj/v4Nlc1yGSZXkZ6Jm7gVyXILIs8jLQG0od8EmAL3JdiEiW5WWg2daMv9fBOacT5xv9zOS6HpEsyc+eYrFZbj+nc12LSBbl5Qg9czcAmhQTA+VloDeUOhZeSeQJlJeBZqODXZoUEwPlZ6AnA1zPdQ0iyyCvJsVmLh/j5Y5IlA+879dtn2Kc/LyXW8RQ+XnILWIoBVrEIAq0iEEUaBGDKNAiBlGgRQyiQIsYRIEWMYgCLWIQBVrEIAq0iEEUaBGDKNAiBlGgRQyiQIsYRIEWMYgCLWKQ/wdNHT72itIVdgAAAABJRU5ErkJggg==;" parent="1" vertex="1">
          <mxGeometry x="236.84" y="1428" width="224.32" height="114" as="geometry" />
        </mxCell>
        <mxCell id="ACEPfVbA1j1k4u8m79z--82" value="b = undefiend" style="rounded=0;whiteSpace=wrap;html=1;strokeColor=default;fillColor=none;" parent="1" vertex="1">
          <mxGeometry x="585" y="1350" width="100" height="30" as="geometry" />
        </mxCell>
        <mxCell id="ACEPfVbA1j1k4u8m79z--83" value="return a + b" style="rounded=0;whiteSpace=wrap;html=1;strokeColor=default;fillColor=none;" parent="1" vertex="1">
          <mxGeometry x="655" y="1590" width="100" height="30" as="geometry" />
        </mxCell>
        <mxCell id="ACEPfVbA1j1k4u8m79z--84" value="" style="endArrow=classic;html=1;rounded=0;exitX=0.5;exitY=1;exitDx=0;exitDy=0;" parent="1" source="ACEPfVbA1j1k4u8m79z--82" target="ACEPfVbA1j1k4u8m79z--77" edge="1">
          <mxGeometry width="50" height="50" relative="1" as="geometry">
            <mxPoint x="630" y="1520" as="sourcePoint" />
            <mxPoint x="680" y="1470" as="targetPoint" />
          </mxGeometry>
        </mxCell>
        <mxCell id="ACEPfVbA1j1k4u8m79z--85" value="" style="endArrow=classic;html=1;rounded=0;entryX=0.5;entryY=1;entryDx=0;entryDy=0;exitX=0.5;exitY=0;exitDx=0;exitDy=0;" parent="1" source="ACEPfVbA1j1k4u8m79z--83" target="ACEPfVbA1j1k4u8m79z--79" edge="1">
          <mxGeometry width="50" height="50" relative="1" as="geometry">
            <mxPoint x="689.375" y="1585" as="sourcePoint" />
            <mxPoint x="680" y="1470" as="targetPoint" />
          </mxGeometry>
        </mxCell>
        <mxCell id="ACEPfVbA1j1k4u8m79z--86" value="" style="endArrow=classic;html=1;rounded=0;exitX=1;exitY=0.5;exitDx=0;exitDy=0;entryX=0;entryY=0.5;entryDx=0;entryDy=0;" parent="1" source="ACEPfVbA1j1k4u8m79z--80" target="ACEPfVbA1j1k4u8m79z--75" edge="1">
          <mxGeometry width="50" height="50" relative="1" as="geometry">
            <mxPoint x="640" y="1520" as="sourcePoint" />
            <mxPoint x="690" y="1470" as="targetPoint" />
          </mxGeometry>
        </mxCell>
        <mxCell id="ACEPfVbA1j1k4u8m79z--87" value="" style="endArrow=classic;html=1;rounded=0;exitX=0.5;exitY=0;exitDx=0;exitDy=0;entryX=0.5;entryY=1;entryDx=0;entryDy=0;" parent="1" source="ACEPfVbA1j1k4u8m79z--68" target="ACEPfVbA1j1k4u8m79z--80" edge="1">
          <mxGeometry width="50" height="50" relative="1" as="geometry">
            <mxPoint x="640" y="1520" as="sourcePoint" />
            <mxPoint x="690" y="1470" as="targetPoint" />
          </mxGeometry>
        </mxCell>
        <mxCell id="ACEPfVbA1j1k4u8m79z--88" value="输出结果" style="rounded=0;whiteSpace=wrap;html=1;strokeColor=default;fillColor=none;" parent="1" vertex="1">
          <mxGeometry x="950" y="1465" width="120" height="40" as="geometry" />
        </mxCell>
        <mxCell id="ACEPfVbA1j1k4u8m79z--91" value="执行代码" style="text;html=1;strokeColor=none;fillColor=none;align=center;verticalAlign=middle;whiteSpace=wrap;rounded=0;" parent="1" vertex="1">
          <mxGeometry x="870" y="1460" width="60" height="30" as="geometry" />
        </mxCell>
        <mxCell id="ACEPfVbA1j1k4u8m79z--92" value="编译代码" style="text;html=1;strokeColor=none;fillColor=none;align=center;verticalAlign=middle;whiteSpace=wrap;rounded=0;" parent="1" vertex="1">
          <mxGeometry x="470" y="1460" width="60" height="30" as="geometry" />
        </mxCell>
        <mxCell id="ACEPfVbA1j1k4u8m79z--93" value="取出 add 函数代码" style="text;html=1;strokeColor=none;fillColor=none;align=center;verticalAlign=middle;whiteSpace=wrap;rounded=0;" parent="1" vertex="1">
          <mxGeometry x="355" y="1560" width="115" height="30" as="geometry" />
        </mxCell>
      </root>
    </mxGraphModel>
  </diagram>
  <diagram id="nqCVDDr2Yua_GqFaWKrL" name="call stack">
    <mxGraphModel dx="1422" dy="762" grid="1" gridSize="10" guides="1" tooltips="1" connect="1" arrows="1" fold="1" page="1" pageScale="1" pageWidth="2339" pageHeight="3300" math="0" shadow="0">
      <root>
        <mxCell id="0" />
        <mxCell id="1" parent="0" />
        <mxCell id="R5CqVk5u4-TaSwrtuB0c-5" value="" style="swimlane;startSize=0;strokeColor=default;fillColor=none;" parent="1" vertex="1">
          <mxGeometry x="360" y="280" width="330" height="340" as="geometry" />
        </mxCell>
        <mxCell id="R5CqVk5u4-TaSwrtuB0c-1" value="" style="verticalLabelPosition=bottom;verticalAlign=top;html=1;shape=mxgraph.basic.rect;fillColor2=none;strokeWidth=1;size=20;indent=5;fillColor=#f5f5f5;strokeColor=#666666;fontColor=#333333;" parent="R5CqVk5u4-TaSwrtuB0c-5" vertex="1">
          <mxGeometry x="20" y="245" width="290" height="85" as="geometry" />
        </mxCell>
        <mxCell id="R5CqVk5u4-TaSwrtuB0c-2" value="全局执行上下文" style="text;html=1;strokeColor=none;fillColor=none;align=center;verticalAlign=middle;whiteSpace=wrap;rounded=0;" parent="R5CqVk5u4-TaSwrtuB0c-5" vertex="1">
          <mxGeometry x="115" y="240" width="90" height="30" as="geometry" />
        </mxCell>
        <mxCell id="R5CqVk5u4-TaSwrtuB0c-3" value="变量环境&lt;br&gt;Variable Environment" style="rounded=0;whiteSpace=wrap;html=1;strokeColor=#6c8ebf;fillColor=#dae8fc;" parent="R5CqVk5u4-TaSwrtuB0c-5" vertex="1">
          <mxGeometry x="30" y="270" width="130" height="50" as="geometry" />
        </mxCell>
        <mxCell id="R5CqVk5u4-TaSwrtuB0c-4" value="词法环境&lt;br&gt;Lexical Environment" style="rounded=0;whiteSpace=wrap;html=1;strokeColor=#6c8ebf;fillColor=#dae8fc;" parent="R5CqVk5u4-TaSwrtuB0c-5" vertex="1">
          <mxGeometry x="170" y="270" width="130" height="50" as="geometry" />
        </mxCell>
        <mxCell id="R5CqVk5u4-TaSwrtuB0c-6" value="调用栈（call stack）" style="text;html=1;align=center;verticalAlign=middle;resizable=0;points=[];autosize=1;fillColor=#f8cecc;strokeColor=#b85450;" parent="R5CqVk5u4-TaSwrtuB0c-5" vertex="1">
          <mxGeometry x="200" width="130" height="30" as="geometry" />
        </mxCell>
        <mxCell id="R5CqVk5u4-TaSwrtuB0c-11" value="" style="verticalLabelPosition=bottom;verticalAlign=top;html=1;shape=mxgraph.basic.rect;fillColor2=none;strokeWidth=1;size=20;indent=5;fillColor=#f5f5f5;strokeColor=#666666;fontColor=#333333;" parent="R5CqVk5u4-TaSwrtuB0c-5" vertex="1">
          <mxGeometry x="20" y="145" width="290" height="85" as="geometry" />
        </mxCell>
        <mxCell id="R5CqVk5u4-TaSwrtuB0c-12" value="addAll 函数执行上下文" style="text;html=1;strokeColor=none;fillColor=none;align=center;verticalAlign=middle;whiteSpace=wrap;rounded=0;" parent="R5CqVk5u4-TaSwrtuB0c-5" vertex="1">
          <mxGeometry x="97.5" y="140" width="135" height="30" as="geometry" />
        </mxCell>
        <mxCell id="R5CqVk5u4-TaSwrtuB0c-13" value="变量环境&lt;br&gt;Variable Environment" style="rounded=0;whiteSpace=wrap;html=1;strokeColor=#6c8ebf;fillColor=#dae8fc;" parent="R5CqVk5u4-TaSwrtuB0c-5" vertex="1">
          <mxGeometry x="30" y="170" width="130" height="50" as="geometry" />
        </mxCell>
        <mxCell id="R5CqVk5u4-TaSwrtuB0c-14" value="词法环境&lt;br&gt;Lexical Environment" style="rounded=0;whiteSpace=wrap;html=1;strokeColor=#6c8ebf;fillColor=#dae8fc;" parent="R5CqVk5u4-TaSwrtuB0c-5" vertex="1">
          <mxGeometry x="170" y="170" width="130" height="50" as="geometry" />
        </mxCell>
        <mxCell id="R5CqVk5u4-TaSwrtuB0c-9" value="" style="shape=image;verticalLabelPosition=bottom;labelBackgroundColor=default;verticalAlign=top;aspect=fixed;imageAspect=0;image=data:image/png,iVBORw0KGgoAAAANSUhEUgAAARMAAABiCAYAAABzoDdoAAAKoUlEQVR4nO3df0jbdx7H8afjjgUOHNcjdZuUpss/w/a67Q60XXq1lo6Dmyvh/EN7RXS7wWjxro6V4RxoFJa5sWOOy23sn8780dX8kUNaexxrMSqXWYUx6lnZP7aO4jYXJkzGSDnW3h/5qomNRpOP+eXrAQHzzTff7yeUvPr5fr6ffN4l9+7du4eISIYeyHUDRKQ4KExExAiFiYgYoTARESMUJiJixM8yefPiDz8Sjd7hrm4IiWx7JeneGl784Ufu/vQTtgd/TklJiel2iUiBSfsyJxq9oyARkWVph8nde/cUJCKyTAOwImKEwkREjFCYiIgRChMRMUJhIiJGKExExAiFiYgYoTARESMUJiJihMJERIzI6FfDhe6zj2qp/Txuw1Nevn5+f87aI1LItnWY8Jv48Jik96/tPIICRSQd2/oy57dPxIfGfn73FPDVbSK5apBIAct+mEz0YLPZEh49E1lvxdoe3YU9120QKUA5uMypYSTaRpX1bNxro/q9fp4/30DZht4f4VpLFV/8K/mrj/zzJr9/Mo1mXf+A2s8f5x+v6xJHJB1pr7T2TWSBX5b+IuMGzAca2N30ZELAZN38ZV584wP2/XmQ1idy1QiRwpaDnsk8/Sd30xyM35ZOV8KQ+cu8+EaIP7w+yB831jUSkSSyHCZWkOwdIXo+1g+J9Uw2cwyTlzmT9Fo9EgWJSGayHCazzAbBfdyxsmVmgM31TOwc8N3kgIHWfPZRO2+VnWJSlzYiGcv+mMlED7bDnuWnntEROFyNBzd9M/00lKfTmnTE5pW8tXpz2SkmX39Wd3RENinnA7AiUhy29aQ1ETFHYSIiRihMRMQIhYmIGKEwEREjFCYiYoTCRESMUJiIiBEKExExQmEiIkYoTETEiMIIk7l+GmwN9M+tvcu414bNO569Nt3nBgFbL53Lj3OMrNPe3PqWkZO9dNqCTGflfAsMvuLC5fIxZW2Zet+Fy3WWQVML7k76cLlcuFwuzl5eMHTQTYgMctY6v+v9qdT7F6HtvTq9QdPeK0x3PENX+95cNyW/RAY5634T2i8R/tuO5c37TocJH/LhcrsYbr/EO8/uWOcgqUzhO3WBEx+EacnVqpv2Wt4J18ba4noJ36EctiVHCqNnkvdu8N9uqDiW4yCZC+HbUI9oJ9XnW+mK1lGxpQ2awmcFSdKw2N9CeOA18D6HbzKD00RmmeUgjkcyOIYxj+IwsdhOAVKYyJZZuNzHhQOv0b5er8NeS3v7QS74B0n74sTuwMEYs1+newCTvmL2Wr4EW3Zl/zJn1eJIAJ7RKG2V8VsS14n1+PvWP05dH3056RTcIGC7sjLucLiXzqW/656g5XwN9rkQPuctfj3zAtXWwk+RwDl8F/fEXo9//jYEnNetuj2lHI17DwATQToP305oQcVoK/WVie0YcvYyZP1t9/+Jlvqdyd+/1MZVnyoSOIevaXFlQ/zl2/LnqYVXP2YomOQ8ACzw6dAYB4+2k+oCZkflEQ56h/k0UkttWqtSxXoDw7cXYH8ml0sGRGaZBRwpdyw+eVjqwgoS+vgyGts27rXhwY176RBWkCyH0Fw/DU6gY+Ot+O7iaS61/jv5iy8Haf7LUxs4yl7qo3tZChVGW6mvTPmm5ILX8QV3UR9tpQKY9vYSeDVERXzgNC1a4bFGO5IEV4LKOrqisT+nvb0Ebty/S+w8cHSm1TpG7LN1Qtx40CJDzo+pGG2l6zxWSA0ycij+vF8xew0cTRv4csf3LNIKk02ca6tl/FkKV/YvcyqrEkpaOJxuCMbSHIC5EANB8JxZqaNT1dS3EiTA+FUP1PXx/NKXqryBlzcRJAC/Ov4+zTdvJn9sKEhM20V93BiG3Vka99q3TF9chI5n0g+rDVk6T1VcKOzlqL8Uur9IuPOTEGrlO+7/3kTi/k23zBQ+lwuXa5gj4XwZ8NxHS/gSDr/hu1UFIAdjJvP0n1yp5re7aSDx5blZBnDjWHMt2Hlu3QD27tlg0a4CUZfkC7kswjdBsDu3+r+65Oex73kI+J7I8sBuKQ+nWqvX7shCV38fLeEw4fARhvPmizuFz/Ucs01hwuF30rxsK0xZDpO4UhfRKNFolC/97sRdyh24k7/ZUsYeA+Mj3108Td9jjyV//P3zzE+wjsjMYuqdEth5uA4iM1v9bUl+nsit74GHsG9qse/YOMbs7Q0Mq2Z8N+ZRHAfGGJ7IwfyS1fLqzlJ2ZTlMrFIXztWlLuKU7+FJBmj2L01AG6fH2Uz8Xg6nG7rfXZ7ENh9ooLp7cy3J7mXOIt9YbY0EzhHYZFthJxXHS6H7CoH16jKX78Qed67NWzrPeNzt5RsMNS1Cx+ObvI28g6ePHmRs6NOUd2kWJoYZO3CEp9P+X9waM9m19pjJdF8jjY2N+NecTzaNv7GRxkb/mhP5Ip900djYSNcn64R6Vnpk+SnLYVJF26iHgabdy5c5oWMjePBQvTzDtYq2mT7c3dXWPiFqZhLHTMrq+xnpGKDZGTvGGd5jZJNjJllTXkO9v5Tpw7GZsQFqafGXpn7fKvb6F+ga3bV8nKWHL/Bt3F6x8Y2EfbxJRllTnKfFH7sjFDtG+pPxdjzbzIlrb+Jdb0ZqZBCvd4wTTbUp7/qsfYx86g3Eekn5cZs6u1TqQrZW3AzY+yauTfpwnbrAQRMzYF0vQS5nwOZlW7JLYSJZsMDgK8/x5rUTfBhuYR+x3+a8dH7lecasYAIMhFMarNAcAzj5IeHTRj5VQVGYiIgRmk4vIkYoTETECIWJiBihMBERIxQmImKEwkREjFCYiIgRChMRMUJhIiJGFEaYbEmpi3F6bCvrqthsNnpW/yJ3oifhdZuth1wW01gy7V3vx375RCU1jMvjkhrbuNRFFW3RKG1gLfvYfP8ulW1Eo21AbJmD3U1ZbWByE0EC3YmrsgkqqZEHCqNnkoFxb/70KEyYvno7jbVFDFNJjTyQfyU1ijxMxgl1u3HXeXg3MJ/rxsgWUUmN/FDUpS7mA+/i6XiZL52w+2KI+fqGgl03dtrbG7dC2xU6u69Yf1slMTBYUmN1CQ+wyl2gkhoqqbGmIi51MU/o4gCeM/2UlbtxNw0QeruBhk2tY5o5MyU1oKK9la52K1RIsvLZRpdqTFFSI/Ylvk5kjdXVVFJDJTXWUrylLuZCDGDtU16Duy5+XdnsKaySGhD5zy0i7KJ+S2smq6RG5vKvpEbRlroY9zfD8RprnzIaznigO1Q0A7FpW7ekhrVyfop9MqeSGpnLv5IaRVrqYpxQNwkLV8fGVzyE1lvdfQsUVkkNq6cSXGBrvy8qqZGxvLqzFFOcpS4mQng6VgJr6THSAZ6r2e2bFFZJDbAf2oOd2wTWW9VeJTXW3GM7l9QowlIX8/S/58FzrOr+sx/zJIRQUTFUUoPyGlqiz1DRfSVhlm3nyVBcb0UlNXIv/0pqaEFpKQ4qqZFzChMpIiqpkUsKExExosin04tItihMRMQIhYmIGKEwEREjFCYiYoTCRESMUJiIiBEKExExQmEiIkakHSYPlJSQ5uRZESlCaYeJzfYg0Tv/U6CICJDBb3MAFn/4kWj0DncVKCLbXkZhIiKyRAOwImKEwkREjFCYiIgRChMRMUJhIiJGKExExIj/A98k39b0p+VpAAAAAElFTkSuQmCC;" parent="1" vertex="1">
          <mxGeometry x="100" y="535.8" width="220" height="78.39" as="geometry" />
        </mxCell>
        <mxCell id="R5CqVk5u4-TaSwrtuB0c-24" value="" style="shape=image;verticalLabelPosition=bottom;labelBackgroundColor=default;verticalAlign=top;aspect=fixed;imageAspect=0;image=data:image/png,iVBORw0KGgoAAAANSUhEUgAAAJsAAABUCAYAAACV30XtAAAFl0lEQVR4nO3cQUhbdxwH8G/KRh8MBmPIw5U12lyEQdV1mB6GQRhMjJSgBwPCjNhL6lYqOOoUSijoIhRmuzkvE3UgxIMiXSLeiu6yCFYNO/RiNS2de0h3EJEno7pDno3R6JKn/pKY7wfeIfmb50/48v//83y/Z9nd3d0FkYALmS6A8gfDRmIYNhLDsJEYho3EMGwkhmEjMQwbiWHYSAzDRmIYNhLDsJGYd07y4Y3NLej6Nnb4v3xKgcXsXR8bm1vYefMGysV3YbFYTrsuOodML6O6vs2gUVpMh21nd5dBo7TwCwKJYdhIDMNGYhg2EsOwkRiGjcQwbCSGYSMxDBuJyYKwheFXFPjnMl0HnbUsCFs2iKDvdjsmtKPGalFoHH1L0rWdHye6xSjXrU+34+rUM+NVCfoP/YSGie5O/FkziLVqFdBCuNldi76WIO6UytZ6HuT3zFb+LdYeBbHW5YUz2fjSBFo1J7zVauy16sT3NSXoDYawLlnnOZGRsIV7FChK7HCPrWSiBABAgaoeOz7/NASol3F5/2cKbYD2Ai/OtrRzSXwZDfcocNz3YUbvgB2ANuaGFYAv5TOs44+v7Xg2lXy0cOI5viw7lVJjPvoYBYfeXEZUA64dn1U6QDhsYTy5D7hGmmE33lEb2uBrmkzjHAW4/tNzXD+L8uhMyS6jr1awCKCsOIemhL9eJtmf2WDNoT8hW8jObJeKcfIVTm4ZvfapE1iI7c/2ltL1tWVArUrYx1FqhJfRIhTVA56HATSPuqFCQ6DRAR/S2bMJLqOldehXWzAwXYdfjEsf3009w92WB0n2cfR/THdX/b3+Dz54/z0TnwzDrziMcLkwvNyGVZsDmNXRUWGmErM0THS3oDXZhVzVi0iX0whUBH23O9FrDN3lNTbTMhA2ylf5fVGXRDFsJIZhIzEMG4lh2EgMw0ZiGDYSw7CRGIaNxDBsJIZhIzF5HLZYC6Gy72A74dnK47DZ0aHr0HUd+vIwXJkuJxVLA29bCnOxrTCPw5YabcwNpTGApC2looWEcHNwGf1dwVhHWIsTvYO5FTiGLUfMTw0gVP4V6vZuRy/1IlgO9D6NZLSudAiHLf6ohcR2vsPzhjbm3refciPwKmEUgcbE/Vbi7JPkkQ5zfiiKH+FUS53zQ1EUWJsmgXEPrEfWkmFJeySyU0ZmNl+lgh9sUei6jujI4d2SNuaGtakMM8aeKjoCeGzxoIR7rPB8MhPbb+0do26cag9KRUe8vvphRN/+rgDcl1I/zevHtzB85Ury48eFlM8T64f4Nf6ICC2EgQXkVA9rRh6/4BqJItAQi4baEEAgYTSMoaZJ+GYD8Xa/z11wwYMncx2wVwBFNhfQ5ID/C+lbydP34Y2f4blxCicq9SJS046r3bVoBQDVi2BNCUJHNP5ko4yE7dhWPqPdb7JSOdQEs9c0pTYEoDcYS3ElEOtlSG/GyUUF1Q+wVh1/PT80kFOdXtn3YBmj3a8shQYYe6cOvdNYdm1u4JjAaSuLwCk0Eqbr9eNb+O3OdPLBtnF4vik3eeYIfl8AnDWf5UynV/aFDXZU3QMclX5UGY9oSKQhPAfYKw7OjmUoPhC0xRUNqFCBOX9so28ibGpxGTC+itVRmNoTntoyesD8UCd64USwOne6pbMwbLEZK2pzw6ooCe/7jNlu5aEVjvH9Iy4ML+8Pph0dsz4olVYoTQDuzUCfhbHkpqmiGcP1VjiU+KLuE287hPG4rgGE9l6rXkQeOXNmVgPYykeCeFGXxDBsJIZhIzEMG4lh2EgMw0ZiGDYSw7CRGIaNxDBsJIZhIzGmw3bBYoHJf6tSnjIdNkW5CH37XwaOUmb6rg8A2Njcgq5vY4eBoxScKGxE6eAXBBLDsJEYho3EMGwkhmEjMQwbiWHYSAzDRmL+A50Uxfbc8cTNAAAAAElFTkSuQmCC;" parent="1" vertex="1">
          <mxGeometry x="100" y="440" width="155" height="84" as="geometry" />
        </mxCell>
        <mxCell id="CvmeRyoTDE0ITqHL47vY-1" value="" style="swimlane;startSize=0;strokeColor=default;fillColor=none;" parent="1" vertex="1">
          <mxGeometry x="360" y="680" width="330" height="340" as="geometry" />
        </mxCell>
        <mxCell id="CvmeRyoTDE0ITqHL47vY-2" value="" style="verticalLabelPosition=bottom;verticalAlign=top;html=1;shape=mxgraph.basic.rect;fillColor2=none;strokeWidth=1;size=20;indent=5;fillColor=#f5f5f5;strokeColor=#666666;fontColor=#333333;" parent="CvmeRyoTDE0ITqHL47vY-1" vertex="1">
          <mxGeometry x="20" y="245" width="290" height="85" as="geometry" />
        </mxCell>
        <mxCell id="CvmeRyoTDE0ITqHL47vY-3" value="全局执行上下文" style="text;html=1;strokeColor=none;fillColor=none;align=center;verticalAlign=middle;whiteSpace=wrap;rounded=0;" parent="CvmeRyoTDE0ITqHL47vY-1" vertex="1">
          <mxGeometry x="115" y="240" width="90" height="30" as="geometry" />
        </mxCell>
        <mxCell id="CvmeRyoTDE0ITqHL47vY-4" value="变量环境&lt;br&gt;Variable Environment" style="rounded=0;whiteSpace=wrap;html=1;strokeColor=#6c8ebf;fillColor=#dae8fc;" parent="CvmeRyoTDE0ITqHL47vY-1" vertex="1">
          <mxGeometry x="30" y="270" width="130" height="50" as="geometry" />
        </mxCell>
        <mxCell id="CvmeRyoTDE0ITqHL47vY-5" value="词法环境&lt;br&gt;Lexical Environment" style="rounded=0;whiteSpace=wrap;html=1;strokeColor=#6c8ebf;fillColor=#dae8fc;" parent="CvmeRyoTDE0ITqHL47vY-1" vertex="1">
          <mxGeometry x="170" y="270" width="130" height="50" as="geometry" />
        </mxCell>
        <mxCell id="CvmeRyoTDE0ITqHL47vY-6" value="调用栈（call stack）" style="text;html=1;align=center;verticalAlign=middle;resizable=0;points=[];autosize=1;fillColor=#f8cecc;strokeColor=#b85450;" parent="CvmeRyoTDE0ITqHL47vY-1" vertex="1">
          <mxGeometry x="200" width="130" height="30" as="geometry" />
        </mxCell>
        <mxCell id="CvmeRyoTDE0ITqHL47vY-7" value="" style="verticalLabelPosition=bottom;verticalAlign=top;html=1;shape=mxgraph.basic.rect;fillColor2=none;strokeWidth=1;size=20;indent=5;fillColor=#f5f5f5;strokeColor=#666666;fontColor=#333333;" parent="CvmeRyoTDE0ITqHL47vY-1" vertex="1">
          <mxGeometry x="20" y="145" width="290" height="85" as="geometry" />
        </mxCell>
        <mxCell id="CvmeRyoTDE0ITqHL47vY-8" value="showName 函数执行上下文" style="text;html=1;strokeColor=none;fillColor=none;align=center;verticalAlign=middle;whiteSpace=wrap;rounded=0;" parent="CvmeRyoTDE0ITqHL47vY-1" vertex="1">
          <mxGeometry x="97.5" y="140" width="152.5" height="30" as="geometry" />
        </mxCell>
        <mxCell id="CvmeRyoTDE0ITqHL47vY-9" value="变量环境&lt;br&gt;Variable Environment" style="rounded=0;whiteSpace=wrap;html=1;strokeColor=#6c8ebf;fillColor=#dae8fc;" parent="CvmeRyoTDE0ITqHL47vY-1" vertex="1">
          <mxGeometry x="30" y="170" width="130" height="50" as="geometry" />
        </mxCell>
        <mxCell id="CvmeRyoTDE0ITqHL47vY-10" value="词法环境&lt;br&gt;Lexical Environment" style="rounded=0;whiteSpace=wrap;html=1;strokeColor=#6c8ebf;fillColor=#dae8fc;" parent="CvmeRyoTDE0ITqHL47vY-1" vertex="1">
          <mxGeometry x="170" y="170" width="130" height="50" as="geometry" />
        </mxCell>
        <mxCell id="CvmeRyoTDE0ITqHL47vY-12" value="&amp;nbsp; myname = &#39;heora&#39;&lt;br&gt;&amp;nbsp; showname = function() {}" style="text;html=1;strokeColor=#d6b656;fillColor=#fff2cc;align=left;verticalAlign=middle;whiteSpace=wrap;rounded=0;" parent="1" vertex="1">
          <mxGeometry x="160" y="960" width="160" height="40" as="geometry" />
        </mxCell>
        <mxCell id="CvmeRyoTDE0ITqHL47vY-13" value="&amp;nbsp; myname = undefined" style="text;html=1;strokeColor=#d6b656;fillColor=#fff2cc;align=left;verticalAlign=middle;whiteSpace=wrap;rounded=0;" parent="1" vertex="1">
          <mxGeometry x="160" y="860" width="130" height="40" as="geometry" />
        </mxCell>
        <mxCell id="_IoDCMMyS7w1k3SS8dNN-1" value="" style="verticalLabelPosition=bottom;verticalAlign=top;html=1;shape=mxgraph.basic.rect;fillColor2=none;strokeWidth=1;size=20;indent=5;fillColor=#f5f5f5;strokeColor=#666666;fontColor=#333333;" parent="1" vertex="1">
          <mxGeometry x="360" y="1125" width="290" height="85" as="geometry" />
        </mxCell>
        <mxCell id="_IoDCMMyS7w1k3SS8dNN-2" value="varTest 函数执行上下文" style="text;html=1;strokeColor=none;fillColor=none;align=center;verticalAlign=middle;whiteSpace=wrap;rounded=0;" parent="1" vertex="1">
          <mxGeometry x="437.5" y="1120" width="152.5" height="30" as="geometry" />
        </mxCell>
        <mxCell id="_IoDCMMyS7w1k3SS8dNN-3" value="变量环境&lt;br&gt;Variable Environment" style="rounded=0;whiteSpace=wrap;html=1;strokeColor=#6c8ebf;fillColor=#dae8fc;" parent="1" vertex="1">
          <mxGeometry x="370" y="1150" width="130" height="50" as="geometry" />
        </mxCell>
        <mxCell id="_IoDCMMyS7w1k3SS8dNN-4" value="词法环境&lt;br&gt;Lexical Environment" style="rounded=0;whiteSpace=wrap;html=1;strokeColor=#6c8ebf;fillColor=#dae8fc;" parent="1" vertex="1">
          <mxGeometry x="510" y="1150" width="130" height="50" as="geometry" />
        </mxCell>
        <mxCell id="_IoDCMMyS7w1k3SS8dNN-5" value="&amp;nbsp; x= undefined" style="text;html=1;strokeColor=#d6b656;fillColor=#fff2cc;align=left;verticalAlign=middle;whiteSpace=wrap;rounded=0;" parent="1" vertex="1">
          <mxGeometry x="240" y="1160" width="80" height="40" as="geometry" />
        </mxCell>
        <mxCell id="_IoDCMMyS7w1k3SS8dNN-6" value="" style="verticalLabelPosition=bottom;verticalAlign=top;html=1;shape=mxgraph.basic.rect;fillColor2=none;strokeWidth=1;size=20;indent=5;fillColor=#f5f5f5;strokeColor=#666666;fontColor=#333333;" parent="1" vertex="1">
          <mxGeometry x="360" y="1315" width="290" height="85" as="geometry" />
        </mxCell>
        <mxCell id="_IoDCMMyS7w1k3SS8dNN-7" value="foo 函数执行上下文" style="text;html=1;strokeColor=none;fillColor=none;align=center;verticalAlign=middle;whiteSpace=wrap;rounded=0;" parent="1" vertex="1">
          <mxGeometry x="437.5" y="1310" width="152.5" height="30" as="geometry" />
        </mxCell>
        <mxCell id="_IoDCMMyS7w1k3SS8dNN-8" value="变量环境&lt;br&gt;Variable Environment" style="rounded=0;whiteSpace=wrap;html=1;strokeColor=#6c8ebf;fillColor=#dae8fc;" parent="1" vertex="1">
          <mxGeometry x="370" y="1340" width="130" height="50" as="geometry" />
        </mxCell>
        <mxCell id="_IoDCMMyS7w1k3SS8dNN-9" value="词法环境&lt;br&gt;Lexical Environment" style="rounded=0;whiteSpace=wrap;html=1;strokeColor=#b85450;fillColor=#f8cecc;" parent="1" vertex="1">
          <mxGeometry x="510" y="1340" width="130" height="50" as="geometry" />
        </mxCell>
        <mxCell id="_IoDCMMyS7w1k3SS8dNN-10" value="&amp;nbsp; a = 1&lt;br&gt;&amp;nbsp; c = 4" style="text;html=1;strokeColor=#6c8ebf;fillColor=#dae8fc;align=left;verticalAlign=middle;whiteSpace=wrap;rounded=0;" parent="1" vertex="1">
          <mxGeometry x="220" y="1345" width="100" height="40" as="geometry" />
        </mxCell>
        <mxCell id="_IoDCMMyS7w1k3SS8dNN-11" value="&amp;nbsp; b = 2" style="text;html=1;strokeColor=#b85450;fillColor=#f8cecc;align=left;verticalAlign=middle;whiteSpace=wrap;rounded=0;" parent="1" vertex="1">
          <mxGeometry x="690" y="1345" width="100" height="40" as="geometry" />
        </mxCell>
        <mxCell id="OuIu8OEXVMJyn6C-uSje-13" value="" style="swimlane;startSize=0;strokeColor=default;fillColor=none;" vertex="1" parent="1">
          <mxGeometry x="360" y="1480" width="330" height="340" as="geometry" />
        </mxCell>
        <mxCell id="OuIu8OEXVMJyn6C-uSje-14" value="" style="verticalLabelPosition=bottom;verticalAlign=top;html=1;shape=mxgraph.basic.rect;fillColor2=none;strokeWidth=1;size=20;indent=5;fillColor=#f5f5f5;strokeColor=#666666;fontColor=#333333;" vertex="1" parent="OuIu8OEXVMJyn6C-uSje-13">
          <mxGeometry x="20" y="245" width="290" height="85" as="geometry" />
        </mxCell>
        <mxCell id="OuIu8OEXVMJyn6C-uSje-15" value="全局执行上下文" style="text;html=1;strokeColor=none;fillColor=none;align=center;verticalAlign=middle;whiteSpace=wrap;rounded=0;" vertex="1" parent="OuIu8OEXVMJyn6C-uSje-13">
          <mxGeometry x="115" y="240" width="90" height="30" as="geometry" />
        </mxCell>
        <mxCell id="OuIu8OEXVMJyn6C-uSje-16" value="变量环境&lt;br&gt;Variable Environment" style="rounded=0;whiteSpace=wrap;html=1;strokeColor=#6c8ebf;fillColor=#dae8fc;" vertex="1" parent="OuIu8OEXVMJyn6C-uSje-13">
          <mxGeometry x="30" y="270" width="130" height="50" as="geometry" />
        </mxCell>
        <mxCell id="OuIu8OEXVMJyn6C-uSje-17" value="词法环境&lt;br&gt;Lexical Environment" style="rounded=0;whiteSpace=wrap;html=1;strokeColor=#b85450;fillColor=#f8cecc;" vertex="1" parent="OuIu8OEXVMJyn6C-uSje-13">
          <mxGeometry x="170" y="270" width="130" height="50" as="geometry" />
        </mxCell>
        <mxCell id="OuIu8OEXVMJyn6C-uSje-18" value="调用栈（call stack）" style="text;html=1;align=center;verticalAlign=middle;resizable=0;points=[];autosize=1;fillColor=#f5f5f5;strokeColor=#666666;fontColor=#333333;" vertex="1" parent="OuIu8OEXVMJyn6C-uSje-13">
          <mxGeometry x="200" width="130" height="30" as="geometry" />
        </mxCell>
        <mxCell id="OuIu8OEXVMJyn6C-uSje-19" value="" style="verticalLabelPosition=bottom;verticalAlign=top;html=1;shape=mxgraph.basic.rect;fillColor2=none;strokeWidth=1;size=20;indent=5;fillColor=#f5f5f5;strokeColor=#666666;fontColor=#333333;" vertex="1" parent="OuIu8OEXVMJyn6C-uSje-13">
          <mxGeometry x="20" y="145" width="290" height="85" as="geometry" />
        </mxCell>
        <mxCell id="OuIu8OEXVMJyn6C-uSje-20" value="foo 函数执行上下文" style="text;html=1;strokeColor=none;fillColor=none;align=center;verticalAlign=middle;whiteSpace=wrap;rounded=0;" vertex="1" parent="OuIu8OEXVMJyn6C-uSje-13">
          <mxGeometry x="97.5" y="140" width="152.5" height="30" as="geometry" />
        </mxCell>
        <mxCell id="OuIu8OEXVMJyn6C-uSje-21" value="变量环境&lt;br&gt;Variable Environment" style="rounded=0;whiteSpace=wrap;html=1;strokeColor=#6c8ebf;fillColor=#dae8fc;" vertex="1" parent="OuIu8OEXVMJyn6C-uSje-13">
          <mxGeometry x="30" y="170" width="130" height="50" as="geometry" />
        </mxCell>
        <mxCell id="OuIu8OEXVMJyn6C-uSje-22" value="词法环境&lt;br&gt;Lexical Environment" style="rounded=0;whiteSpace=wrap;html=1;strokeColor=#b85450;fillColor=#f8cecc;" vertex="1" parent="OuIu8OEXVMJyn6C-uSje-13">
          <mxGeometry x="170" y="170" width="130" height="50" as="geometry" />
        </mxCell>
        <mxCell id="OuIu8OEXVMJyn6C-uSje-28" value="" style="verticalLabelPosition=bottom;verticalAlign=top;html=1;shape=mxgraph.basic.rect;fillColor2=none;strokeWidth=1;size=20;indent=5;fillColor=#f5f5f5;strokeColor=#666666;fontColor=#333333;" vertex="1" parent="OuIu8OEXVMJyn6C-uSje-13">
          <mxGeometry x="20" y="45" width="290" height="85" as="geometry" />
        </mxCell>
        <mxCell id="OuIu8OEXVMJyn6C-uSje-29" value="bar 函数执行上下文" style="text;html=1;strokeColor=none;fillColor=none;align=center;verticalAlign=middle;whiteSpace=wrap;rounded=0;" vertex="1" parent="OuIu8OEXVMJyn6C-uSje-13">
          <mxGeometry x="97.5" y="40" width="152.5" height="30" as="geometry" />
        </mxCell>
        <mxCell id="OuIu8OEXVMJyn6C-uSje-30" value="变量环境&lt;br&gt;Variable Environment" style="rounded=0;whiteSpace=wrap;html=1;strokeColor=#6c8ebf;fillColor=#dae8fc;" vertex="1" parent="OuIu8OEXVMJyn6C-uSje-13">
          <mxGeometry x="30" y="70" width="130" height="50" as="geometry" />
        </mxCell>
        <mxCell id="OuIu8OEXVMJyn6C-uSje-31" value="词法环境&lt;br&gt;Lexical Environment" style="rounded=0;whiteSpace=wrap;html=1;strokeColor=#b85450;fillColor=#f8cecc;" vertex="1" parent="OuIu8OEXVMJyn6C-uSje-13">
          <mxGeometry x="170" y="70" width="130" height="50" as="geometry" />
        </mxCell>
        <mxCell id="OuIu8OEXVMJyn6C-uSje-32" value="" style="edgeStyle=elbowEdgeStyle;elbow=vertical;endArrow=classic;html=1;rounded=0;exitX=0;exitY=0.5;exitDx=0;exitDy=0;entryX=0;entryY=0.5;entryDx=0;entryDy=0;" edge="1" parent="OuIu8OEXVMJyn6C-uSje-13" source="OuIu8OEXVMJyn6C-uSje-30" target="OuIu8OEXVMJyn6C-uSje-16">
          <mxGeometry width="50" height="50" relative="1" as="geometry">
            <mxPoint x="270" y="330" as="sourcePoint" />
            <mxPoint x="320" y="280" as="targetPoint" />
            <Array as="points">
              <mxPoint x="-120" y="200" />
            </Array>
          </mxGeometry>
        </mxCell>
        <mxCell id="OuIu8OEXVMJyn6C-uSje-33" value="" style="edgeStyle=elbowEdgeStyle;elbow=vertical;endArrow=classic;html=1;rounded=0;exitX=0;exitY=0.5;exitDx=0;exitDy=0;entryX=0;entryY=0.25;entryDx=0;entryDy=0;" edge="1" parent="OuIu8OEXVMJyn6C-uSje-13" source="OuIu8OEXVMJyn6C-uSje-21" target="OuIu8OEXVMJyn6C-uSje-16">
          <mxGeometry width="50" height="50" relative="1" as="geometry">
            <mxPoint x="270" y="330" as="sourcePoint" />
            <mxPoint x="320" y="280" as="targetPoint" />
            <Array as="points">
              <mxPoint x="-90" y="240" />
            </Array>
          </mxGeometry>
        </mxCell>
        <mxCell id="OuIu8OEXVMJyn6C-uSje-23" value="&amp;nbsp; myName = &#39;heora&#39;" style="text;html=1;strokeColor=#d6b656;fillColor=#fff2cc;align=left;verticalAlign=middle;whiteSpace=wrap;rounded=0;" vertex="1" parent="1">
          <mxGeometry x="90" y="1760" width="130" height="40" as="geometry" />
        </mxCell>
        <mxCell id="OuIu8OEXVMJyn6C-uSje-24" value="&amp;nbsp; myName = &#39;yueluo&#39;" style="text;html=1;strokeColor=#d6b656;fillColor=#fff2cc;align=left;verticalAlign=middle;whiteSpace=wrap;rounded=0;" vertex="1" parent="1">
          <mxGeometry x="90" y="1660" width="130" height="40" as="geometry" />
        </mxCell>
        <mxCell id="OuIu8OEXVMJyn6C-uSje-36" value="指向全局执行上下文" style="text;html=1;strokeColor=none;fillColor=none;align=center;verticalAlign=middle;whiteSpace=wrap;rounded=0;" vertex="1" parent="1">
          <mxGeometry x="240" y="1530" width="80" height="30" as="geometry" />
        </mxCell>
        <mxCell id="OuIu8OEXVMJyn6C-uSje-37" value="指向全局执行上下文" style="text;html=1;strokeColor=none;fillColor=none;align=center;verticalAlign=middle;whiteSpace=wrap;rounded=0;" vertex="1" parent="1">
          <mxGeometry x="270" y="1635" width="80" height="30" as="geometry" />
        </mxCell>
        <mxCell id="OuIu8OEXVMJyn6C-uSje-38" value="&amp;nbsp; &amp;nbsp; &amp;nbsp; &lt;br&gt;&amp;nbsp; &amp;nbsp; &amp;nbsp; &amp;nbsp; let coung = 1&lt;br&gt;&amp;nbsp; &amp;nbsp; &amp;nbsp; &amp;nbsp;&amp;nbsp;&lt;br&gt;&amp;nbsp; &amp;nbsp; &amp;nbsp; &amp;nbsp; function main() {&lt;br&gt;&amp;nbsp; &amp;nbsp;&amp;nbsp;&lt;br&gt;&lt;br&gt;&lt;br&gt;&lt;br&gt;&lt;br&gt;&lt;br&gt;&amp;nbsp; &amp;nbsp; &amp;nbsp; &amp;nbsp; &lt;br&gt;&lt;br&gt;&lt;br&gt;&amp;nbsp; &amp;nbsp; &amp;nbsp; &amp;nbsp; &lt;br&gt;&amp;nbsp; &amp;nbsp; &amp;nbsp; &amp;nbsp;&lt;br&gt;&amp;nbsp; &amp;nbsp; &amp;nbsp; &amp;nbsp; }" style="rounded=0;whiteSpace=wrap;html=1;strokeColor=#d6b656;fillColor=#fff2cc;align=left;verticalAlign=top;" vertex="1" parent="1">
          <mxGeometry x="359" y="1920" width="261" height="240" as="geometry" />
        </mxCell>
        <mxCell id="OuIu8OEXVMJyn6C-uSje-39" value="&amp;nbsp; let count = 2&lt;br&gt;&amp;nbsp; function bar() {&lt;br&gt;&amp;nbsp;&amp;nbsp;&lt;br&gt;&amp;nbsp;&amp;nbsp;&lt;br&gt;&lt;br&gt;&lt;br&gt;&lt;br&gt;&lt;br&gt;&amp;nbsp;}" style="rounded=0;whiteSpace=wrap;html=1;strokeColor=#b85450;fillColor=#f8cecc;align=left;verticalAlign=top;" vertex="1" parent="1">
          <mxGeometry x="390" y="1989" width="200" height="150" as="geometry" />
        </mxCell>
        <mxCell id="OuIu8OEXVMJyn6C-uSje-40" value="&amp;nbsp; let count = 3&lt;br&gt;&amp;nbsp; funtion foo() {&lt;br&gt;&lt;br&gt;&lt;br&gt;&amp;nbsp; }" style="rounded=0;whiteSpace=wrap;html=1;strokeColor=#6c8ebf;fillColor=#dae8fc;align=left;verticalAlign=top;" vertex="1" parent="1">
          <mxGeometry x="400" y="2025.5" width="110" height="84.5" as="geometry" />
        </mxCell>
        <mxCell id="OuIu8OEXVMJyn6C-uSje-41" value="&amp;nbsp;let count = 4" style="rounded=0;whiteSpace=wrap;html=1;strokeColor=#666666;fillColor=#f5f5f5;align=left;verticalAlign=top;fontColor=#333333;" vertex="1" parent="1">
          <mxGeometry x="410" y="2064" width="80" height="23" as="geometry" />
        </mxCell>
        <mxCell id="OuIu8OEXVMJyn6C-uSje-42" value="全局作用域&amp;nbsp;&lt;br&gt;count&lt;br&gt;main" style="rounded=0;whiteSpace=wrap;html=1;strokeColor=#d6b656;fillColor=#fff2cc;" vertex="1" parent="1">
          <mxGeometry x="180" y="2040" width="120" height="47" as="geometry" />
        </mxCell>
        <mxCell id="OuIu8OEXVMJyn6C-uSje-43" value="main 函数作用域&amp;nbsp;&lt;br&gt;count&lt;br&gt;bar" style="rounded=0;whiteSpace=wrap;html=1;strokeColor=#b85450;fillColor=#f8cecc;" vertex="1" parent="1">
          <mxGeometry x="301" y="2190" width="99" height="47" as="geometry" />
        </mxCell>
        <mxCell id="OuIu8OEXVMJyn6C-uSje-44" value="bar 函数作用域&amp;nbsp;&lt;br&gt;count&lt;br&gt;foo" style="rounded=0;whiteSpace=wrap;html=1;strokeColor=#6c8ebf;fillColor=#dae8fc;" vertex="1" parent="1">
          <mxGeometry x="410" y="2190" width="100" height="47" as="geometry" />
        </mxCell>
        <mxCell id="OuIu8OEXVMJyn6C-uSje-45" value="foo 函数作用域&amp;nbsp;&lt;br&gt;count" style="rounded=0;whiteSpace=wrap;html=1;strokeColor=#666666;fillColor=#f5f5f5;fontColor=#333333;" vertex="1" parent="1">
          <mxGeometry x="520" y="2190" width="100" height="47" as="geometry" />
        </mxCell>
        <mxCell id="OuIu8OEXVMJyn6C-uSje-46" value="" style="edgeStyle=elbowEdgeStyle;elbow=vertical;endArrow=classic;html=1;rounded=0;entryX=0.5;entryY=1;entryDx=0;entryDy=0;exitX=0;exitY=0.5;exitDx=0;exitDy=0;fillColor=#fff2cc;strokeColor=#d6b656;dashed=1;" edge="1" parent="1" source="OuIu8OEXVMJyn6C-uSje-45" target="OuIu8OEXVMJyn6C-uSje-42">
          <mxGeometry width="50" height="50" relative="1" as="geometry">
            <mxPoint x="630" y="2190" as="sourcePoint" />
            <mxPoint x="680" y="2140" as="targetPoint" />
            <Array as="points">
              <mxPoint x="310" y="2214" />
            </Array>
          </mxGeometry>
        </mxCell>
        <mxCell id="OuIu8OEXVMJyn6C-uSje-47" value="" style="swimlane;startSize=0;strokeColor=default;fillColor=none;" vertex="1" parent="1">
          <mxGeometry x="1070" y="1480" width="330" height="340" as="geometry" />
        </mxCell>
        <mxCell id="OuIu8OEXVMJyn6C-uSje-48" value="" style="verticalLabelPosition=bottom;verticalAlign=top;html=1;shape=mxgraph.basic.rect;fillColor2=none;strokeWidth=1;size=20;indent=5;fillColor=#f5f5f5;strokeColor=#666666;fontColor=#333333;" vertex="1" parent="OuIu8OEXVMJyn6C-uSje-47">
          <mxGeometry x="20" y="245" width="290" height="85" as="geometry" />
        </mxCell>
        <mxCell id="OuIu8OEXVMJyn6C-uSje-49" value="全局执行上下文" style="text;html=1;strokeColor=none;fillColor=none;align=center;verticalAlign=middle;whiteSpace=wrap;rounded=0;" vertex="1" parent="OuIu8OEXVMJyn6C-uSje-47">
          <mxGeometry x="115" y="240" width="90" height="30" as="geometry" />
        </mxCell>
        <mxCell id="OuIu8OEXVMJyn6C-uSje-50" value="变量环境&lt;br&gt;Variable Environment" style="rounded=0;whiteSpace=wrap;html=1;strokeColor=#6c8ebf;fillColor=#dae8fc;" vertex="1" parent="OuIu8OEXVMJyn6C-uSje-47">
          <mxGeometry x="30" y="270" width="130" height="50" as="geometry" />
        </mxCell>
        <mxCell id="OuIu8OEXVMJyn6C-uSje-51" value="词法环境&lt;br&gt;Lexical Environment" style="rounded=0;whiteSpace=wrap;html=1;strokeColor=#b85450;fillColor=#f8cecc;" vertex="1" parent="OuIu8OEXVMJyn6C-uSje-47">
          <mxGeometry x="170" y="270" width="130" height="50" as="geometry" />
        </mxCell>
        <mxCell id="OuIu8OEXVMJyn6C-uSje-52" value="调用栈（call stack）" style="text;html=1;align=center;verticalAlign=middle;resizable=0;points=[];autosize=1;fillColor=#f5f5f5;strokeColor=#666666;fontColor=#333333;" vertex="1" parent="OuIu8OEXVMJyn6C-uSje-47">
          <mxGeometry x="200" width="130" height="30" as="geometry" />
        </mxCell>
        <mxCell id="OuIu8OEXVMJyn6C-uSje-53" value="" style="verticalLabelPosition=bottom;verticalAlign=top;html=1;shape=mxgraph.basic.rect;fillColor2=none;strokeWidth=1;size=20;indent=5;fillColor=#f5f5f5;strokeColor=#666666;fontColor=#333333;" vertex="1" parent="OuIu8OEXVMJyn6C-uSje-47">
          <mxGeometry x="20" y="145" width="290" height="85" as="geometry" />
        </mxCell>
        <mxCell id="OuIu8OEXVMJyn6C-uSje-54" value="foo 函数执行上下文" style="text;html=1;strokeColor=none;fillColor=none;align=center;verticalAlign=middle;whiteSpace=wrap;rounded=0;" vertex="1" parent="OuIu8OEXVMJyn6C-uSje-47">
          <mxGeometry x="97.5" y="140" width="152.5" height="30" as="geometry" />
        </mxCell>
        <mxCell id="OuIu8OEXVMJyn6C-uSje-55" value="变量环境&lt;br&gt;Variable Environment" style="rounded=0;whiteSpace=wrap;html=1;strokeColor=#6c8ebf;fillColor=#dae8fc;" vertex="1" parent="OuIu8OEXVMJyn6C-uSje-47">
          <mxGeometry x="30" y="170" width="130" height="50" as="geometry" />
        </mxCell>
        <mxCell id="OuIu8OEXVMJyn6C-uSje-56" value="词法环境&lt;br&gt;Lexical Environment" style="rounded=0;whiteSpace=wrap;html=1;strokeColor=#b85450;fillColor=#f8cecc;" vertex="1" parent="OuIu8OEXVMJyn6C-uSje-47">
          <mxGeometry x="170" y="170" width="130" height="50" as="geometry" />
        </mxCell>
        <mxCell id="OuIu8OEXVMJyn6C-uSje-57" value="" style="verticalLabelPosition=bottom;verticalAlign=top;html=1;shape=mxgraph.basic.rect;fillColor2=none;strokeWidth=1;size=20;indent=5;fillColor=#f5f5f5;strokeColor=#666666;fontColor=#333333;" vertex="1" parent="OuIu8OEXVMJyn6C-uSje-47">
          <mxGeometry x="20" y="45" width="290" height="85" as="geometry" />
        </mxCell>
        <mxCell id="OuIu8OEXVMJyn6C-uSje-58" value="bar 函数执行上下文" style="text;html=1;strokeColor=none;fillColor=none;align=center;verticalAlign=middle;whiteSpace=wrap;rounded=0;" vertex="1" parent="OuIu8OEXVMJyn6C-uSje-47">
          <mxGeometry x="97.5" y="40" width="152.5" height="30" as="geometry" />
        </mxCell>
        <mxCell id="OuIu8OEXVMJyn6C-uSje-59" value="变量环境&lt;br&gt;Variable Environment" style="rounded=0;whiteSpace=wrap;html=1;strokeColor=#6c8ebf;fillColor=#dae8fc;" vertex="1" parent="OuIu8OEXVMJyn6C-uSje-47">
          <mxGeometry x="30" y="70" width="130" height="50" as="geometry" />
        </mxCell>
        <mxCell id="OuIu8OEXVMJyn6C-uSje-60" value="词法环境&lt;br&gt;Lexical Environment" style="rounded=0;whiteSpace=wrap;html=1;strokeColor=#b85450;fillColor=#f8cecc;" vertex="1" parent="OuIu8OEXVMJyn6C-uSje-47">
          <mxGeometry x="170" y="70" width="130" height="50" as="geometry" />
        </mxCell>
        <mxCell id="OuIu8OEXVMJyn6C-uSje-61" value="" style="edgeStyle=elbowEdgeStyle;elbow=vertical;endArrow=classic;html=1;rounded=0;exitX=0;exitY=0.5;exitDx=0;exitDy=0;entryX=0;entryY=0.5;entryDx=0;entryDy=0;" edge="1" parent="OuIu8OEXVMJyn6C-uSje-47" source="OuIu8OEXVMJyn6C-uSje-59" target="OuIu8OEXVMJyn6C-uSje-50">
          <mxGeometry width="50" height="50" relative="1" as="geometry">
            <mxPoint x="270" y="330" as="sourcePoint" />
            <mxPoint x="320" y="280" as="targetPoint" />
            <Array as="points">
              <mxPoint x="-120" y="200" />
            </Array>
          </mxGeometry>
        </mxCell>
        <mxCell id="OuIu8OEXVMJyn6C-uSje-62" value="" style="edgeStyle=elbowEdgeStyle;elbow=vertical;endArrow=classic;html=1;rounded=0;exitX=0;exitY=0.5;exitDx=0;exitDy=0;entryX=0;entryY=0.25;entryDx=0;entryDy=0;" edge="1" parent="OuIu8OEXVMJyn6C-uSje-47" source="OuIu8OEXVMJyn6C-uSje-55" target="OuIu8OEXVMJyn6C-uSje-50">
          <mxGeometry width="50" height="50" relative="1" as="geometry">
            <mxPoint x="270" y="330" as="sourcePoint" />
            <mxPoint x="320" y="280" as="targetPoint" />
            <Array as="points">
              <mxPoint x="-90" y="240" />
            </Array>
          </mxGeometry>
        </mxCell>
        <mxCell id="OuIu8OEXVMJyn6C-uSje-63" value="&amp;nbsp; myName = &#39;月落&#39;" style="text;html=1;strokeColor=#6c8ebf;fillColor=#dae8fc;align=left;verticalAlign=middle;whiteSpace=wrap;rounded=0;" vertex="1" parent="1">
          <mxGeometry x="800" y="1760" width="140" height="40" as="geometry" />
        </mxCell>
        <mxCell id="OuIu8OEXVMJyn6C-uSje-64" value="&amp;nbsp; myName = &#39;yueluo&#39;" style="text;html=1;strokeColor=#6c8ebf;fillColor=#dae8fc;align=left;verticalAlign=middle;whiteSpace=wrap;rounded=0;" vertex="1" parent="1">
          <mxGeometry x="800" y="1660" width="130" height="40" as="geometry" />
        </mxCell>
        <mxCell id="OuIu8OEXVMJyn6C-uSje-65" value="指向全局执行上下文" style="text;html=1;strokeColor=none;fillColor=none;align=center;verticalAlign=middle;whiteSpace=wrap;rounded=0;" vertex="1" parent="1">
          <mxGeometry x="950" y="1530" width="80" height="30" as="geometry" />
        </mxCell>
        <mxCell id="OuIu8OEXVMJyn6C-uSje-66" value="指向全局执行上下文" style="text;html=1;strokeColor=none;fillColor=none;align=center;verticalAlign=middle;whiteSpace=wrap;rounded=0;" vertex="1" parent="1">
          <mxGeometry x="980" y="1635" width="80" height="30" as="geometry" />
        </mxCell>
        <mxCell id="OuIu8OEXVMJyn6C-uSje-67" value="&amp;nbsp; test = 2" style="text;html=1;strokeColor=#b85450;fillColor=#f8cecc;align=left;verticalAlign=middle;whiteSpace=wrap;rounded=0;" vertex="1" parent="1">
          <mxGeometry x="1420" y="1680" width="70" height="30" as="geometry" />
        </mxCell>
        <mxCell id="OuIu8OEXVMJyn6C-uSje-68" value="&amp;nbsp; test = 3" style="text;html=1;strokeColor=#b85450;fillColor=#f8cecc;align=left;verticalAlign=middle;whiteSpace=wrap;rounded=0;" vertex="1" parent="1">
          <mxGeometry x="1420" y="1650" width="70" height="25" as="geometry" />
        </mxCell>
        <mxCell id="OuIu8OEXVMJyn6C-uSje-69" value="&amp;nbsp; myAge = 10&lt;br&gt;&amp;nbsp; test = 1" style="text;html=1;strokeColor=#b85450;fillColor=#f8cecc;align=left;verticalAlign=middle;whiteSpace=wrap;rounded=0;" vertex="1" parent="1">
          <mxGeometry x="1420" y="1750" width="120" height="50" as="geometry" />
        </mxCell>
        <mxCell id="OuIu8OEXVMJyn6C-uSje-70" value="&amp;nbsp; myName = &#39;&#39;chrome browser&#39;" style="text;html=1;strokeColor=#b85450;fillColor=#f8cecc;align=left;verticalAlign=middle;whiteSpace=wrap;rounded=0;" vertex="1" parent="1">
          <mxGeometry x="1420" y="1530" width="200" height="30" as="geometry" />
        </mxCell>
        <mxCell id="OuIu8OEXVMJyn6C-uSje-71" value="&amp;nbsp; test1 = 100" style="text;html=1;strokeColor=#b85450;fillColor=#f8cecc;align=left;verticalAlign=middle;whiteSpace=wrap;rounded=0;" vertex="1" parent="1">
          <mxGeometry x="1420" y="1570" width="100" height="30" as="geometry" />
        </mxCell>
        <mxCell id="OuIu8OEXVMJyn6C-uSje-72" value="&amp;nbsp; myName = &#39;heora&#39;" style="text;html=1;strokeColor=#6c8ebf;fillColor=#dae8fc;align=left;verticalAlign=middle;whiteSpace=wrap;rounded=0;" vertex="1" parent="1">
          <mxGeometry x="800" y="1550" width="140" height="40" as="geometry" />
        </mxCell>
        <mxCell id="OuIu8OEXVMJyn6C-uSje-73" value="1" style="ellipse;whiteSpace=wrap;html=1;aspect=fixed;strokeColor=#B20000;fillColor=#e51400;fontColor=#ffffff;" vertex="1" parent="1">
          <mxGeometry x="1590" y="1535" width="20" height="20" as="geometry" />
        </mxCell>
        <mxCell id="OuIu8OEXVMJyn6C-uSje-74" value="2" style="ellipse;whiteSpace=wrap;html=1;aspect=fixed;strokeColor=#B20000;fillColor=#e51400;fontColor=#ffffff;" vertex="1" parent="1">
          <mxGeometry x="1496" y="1575" width="20" height="20" as="geometry" />
        </mxCell>
        <mxCell id="OuIu8OEXVMJyn6C-uSje-75" value="3" style="ellipse;whiteSpace=wrap;html=1;aspect=fixed;strokeColor=#B20000;fillColor=#e51400;fontColor=#ffffff;" vertex="1" parent="1">
          <mxGeometry x="915" y="1560" width="20" height="20" as="geometry" />
        </mxCell>
        <mxCell id="OuIu8OEXVMJyn6C-uSje-76" value="4" style="ellipse;whiteSpace=wrap;html=1;aspect=fixed;strokeColor=#B20000;fillColor=#e51400;fontColor=#ffffff;" vertex="1" parent="1">
          <mxGeometry x="1510" y="1766" width="20" height="20" as="geometry" />
        </mxCell>
        <mxCell id="OuIu8OEXVMJyn6C-uSje-77" value="5" style="ellipse;whiteSpace=wrap;html=1;aspect=fixed;strokeColor=#B20000;fillColor=#e51400;fontColor=#ffffff;" vertex="1" parent="1">
          <mxGeometry x="910" y="1770" width="20" height="20" as="geometry" />
        </mxCell>
        <mxCell id="OuIu8OEXVMJyn6C-uSje-79" value="" style="swimlane;startSize=0;strokeColor=default;fillColor=none;" vertex="1" parent="1">
          <mxGeometry x="960" y="1920" width="330" height="340" as="geometry" />
        </mxCell>
        <mxCell id="OuIu8OEXVMJyn6C-uSje-80" value="" style="verticalLabelPosition=bottom;verticalAlign=top;html=1;shape=mxgraph.basic.rect;fillColor2=none;strokeWidth=1;size=20;indent=5;fillColor=#f5f5f5;strokeColor=#666666;fontColor=#333333;" vertex="1" parent="OuIu8OEXVMJyn6C-uSje-79">
          <mxGeometry x="20" y="245" width="290" height="85" as="geometry" />
        </mxCell>
        <mxCell id="OuIu8OEXVMJyn6C-uSje-81" value="全局执行上下文" style="text;html=1;strokeColor=none;fillColor=none;align=center;verticalAlign=middle;whiteSpace=wrap;rounded=0;" vertex="1" parent="OuIu8OEXVMJyn6C-uSje-79">
          <mxGeometry x="115" y="240" width="90" height="30" as="geometry" />
        </mxCell>
        <mxCell id="OuIu8OEXVMJyn6C-uSje-82" value="变量环境&lt;br&gt;Variable Environment" style="rounded=0;whiteSpace=wrap;html=1;strokeColor=#6c8ebf;fillColor=#dae8fc;" vertex="1" parent="OuIu8OEXVMJyn6C-uSje-79">
          <mxGeometry x="30" y="270" width="130" height="50" as="geometry" />
        </mxCell>
        <mxCell id="OuIu8OEXVMJyn6C-uSje-83" value="词法环境&lt;br&gt;Lexical Environment" style="rounded=0;whiteSpace=wrap;html=1;strokeColor=#b85450;fillColor=#f8cecc;" vertex="1" parent="OuIu8OEXVMJyn6C-uSje-79">
          <mxGeometry x="170" y="270" width="130" height="50" as="geometry" />
        </mxCell>
        <mxCell id="OuIu8OEXVMJyn6C-uSje-84" value="调用栈（call stack）" style="text;html=1;align=center;verticalAlign=middle;resizable=0;points=[];autosize=1;fillColor=#f5f5f5;strokeColor=#666666;fontColor=#333333;" vertex="1" parent="OuIu8OEXVMJyn6C-uSje-79">
          <mxGeometry x="200" width="130" height="30" as="geometry" />
        </mxCell>
        <mxCell id="OuIu8OEXVMJyn6C-uSje-85" value="" style="verticalLabelPosition=bottom;verticalAlign=top;html=1;shape=mxgraph.basic.rect;fillColor2=none;strokeWidth=1;size=20;indent=5;fillColor=#f5f5f5;strokeColor=#666666;fontColor=#333333;" vertex="1" parent="OuIu8OEXVMJyn6C-uSje-79">
          <mxGeometry x="20" y="145" width="290" height="85" as="geometry" />
        </mxCell>
        <mxCell id="OuIu8OEXVMJyn6C-uSje-86" value="foo 函数执行上下文" style="text;html=1;strokeColor=none;fillColor=none;align=center;verticalAlign=middle;whiteSpace=wrap;rounded=0;" vertex="1" parent="OuIu8OEXVMJyn6C-uSje-79">
          <mxGeometry x="97.5" y="140" width="152.5" height="30" as="geometry" />
        </mxCell>
        <mxCell id="OuIu8OEXVMJyn6C-uSje-87" value="变量环境&lt;br&gt;Variable Environment" style="rounded=0;whiteSpace=wrap;html=1;strokeColor=#6c8ebf;fillColor=#dae8fc;" vertex="1" parent="OuIu8OEXVMJyn6C-uSje-79">
          <mxGeometry x="30" y="170" width="130" height="50" as="geometry" />
        </mxCell>
        <mxCell id="OuIu8OEXVMJyn6C-uSje-88" value="词法环境&lt;br&gt;Lexical Environment" style="rounded=0;whiteSpace=wrap;html=1;strokeColor=#b85450;fillColor=#f8cecc;" vertex="1" parent="OuIu8OEXVMJyn6C-uSje-79">
          <mxGeometry x="170" y="170" width="130" height="50" as="geometry" />
        </mxCell>
        <mxCell id="OuIu8OEXVMJyn6C-uSje-96" value="&amp;nbsp; test1 = 1" style="text;html=1;strokeColor=#b85450;fillColor=#f8cecc;align=left;verticalAlign=middle;whiteSpace=wrap;rounded=0;" vertex="1" parent="1">
          <mxGeometry x="1310" y="2120" width="70" height="30" as="geometry" />
        </mxCell>
        <mxCell id="OuIu8OEXVMJyn6C-uSje-97" value="&amp;nbsp; test2 = 2" style="text;html=1;strokeColor=#b85450;fillColor=#f8cecc;align=left;verticalAlign=middle;whiteSpace=wrap;rounded=0;" vertex="1" parent="1">
          <mxGeometry x="1310" y="2090" width="70" height="25" as="geometry" />
        </mxCell>
        <mxCell id="OuIu8OEXVMJyn6C-uSje-102" value="&amp;nbsp; bar = undefined" style="text;html=1;strokeColor=#6c8ebf;fillColor=#dae8fc;align=left;verticalAlign=middle;whiteSpace=wrap;rounded=0;" vertex="1" parent="1">
          <mxGeometry x="795" y="2198.5" width="120" height="38.5" as="geometry" />
        </mxCell>
        <mxCell id="OuIu8OEXVMJyn6C-uSje-103" value="&amp;nbsp; myName = &#39;heora&#39;&lt;br&gt;&amp;nbsp; innerBar = {}" style="text;html=1;strokeColor=#6c8ebf;fillColor=#dae8fc;align=left;verticalAlign=middle;whiteSpace=wrap;rounded=0;" vertex="1" parent="1">
          <mxGeometry x="795" y="2089" width="120" height="50" as="geometry" />
        </mxCell>
      </root>
    </mxGraphModel>
  </diagram>
</mxfile>
